<?xml version="1.0" encoding="UTF-8" standalone="no"?>
<svg
   xmlns:dc="http://purl.org/dc/elements/1.1/"
   xmlns:cc="http://creativecommons.org/ns#"
   xmlns:rdf="http://www.w3.org/1999/02/22-rdf-syntax-ns#"
   xmlns:svg="http://www.w3.org/2000/svg"
   xmlns="http://www.w3.org/2000/svg"
   xmlns:sodipodi="http://sodipodi.sourceforge.net/DTD/sodipodi-0.dtd"
   xmlns:inkscape="http://www.inkscape.org/namespaces/inkscape"
   version="1.0"
   width="345.642917689"
   height="289.315923695"
   viewBox="0 0 810.000000 678.000000">
  <g
     transform="translate(0.000000,678.000000) scale(0.100000,-0.100000)"
     fill="#000000"
     stroke="none"
     id="g36">
    <path
       d="M1360 6769 c-132 -15 -280 -49 -420 -96 -135 -45 -323 -126 -349 -149 -16 -14 26 -47 246 -191 82 -53 174 -116 205 -140 245 -188 447 -517 609 -993 68 -199 114 -360 209 -740 153 -612 226 -849 343 -1114 123 -278 261 -479 482 -703 397 -401 745 -572 1285 -630 163 -17 415 -20 1853 -15 l887 2 0 1500 0 1499 -41 11 c-336 91 -810 21 -1032 -153 l-38 -29 108 -107 108 -106 75 37 c41 21 102 45 135 54 82 21 249 29 303 15 l42 -12 0 -1198 0 -1199 -192 -7 c-106 -3 -580 -2 -1053 3 -800 9 -868 12 -970 31 -418 77 -682 313 -819 730 -90 271 -118 572 -105 1111 10 406 10 895 -1 1020 -37 426 -131 729 -301 970 -72 103 -216 242 -327 318 -158 108 -381 209 -552 248 -170 40 -492 55 -690 33z"
       id="path12"
       style="fill:#d40000" />
    <path
       d="M6230 5623 c-437 -41 -812 -180 -1245 -461 l-70 -45 131 -33 c73 -18 160 -44 195 -58 l62 -26 46 29 c76 49 286 150 396 191 219 83 430 122 665 122 199 1 345 -16 523 -63 l37 -10 0 -1764 0 -1765 -1552 0 c-1697 0 -1644 -1 -1880 59 -479 123 -949 426 -1258 813 -302 376 -488 750 -655 1318 -101 345 -114 385 -168 530 -63 173 -93 232 -160 315 -149 186 -360 285 -609 285 -153 0 -279 -30 -414 -98 -67 -34 -202 -132 -248 -181 -27 -28 -28 -31 -10 -37 91 -32 252 -115 341 -175 76 -52 224 -201 285 -286 112 -156 180 -303 323 -698 108 -300 153 -409 249 -610 274 -570 611 -949 1088 -1224 317 -182 668 -280 1268 -353 184 -22 192 -22 1978 -25 l1792 -4 -2 2053 -3 2052 -45 13 c-222 66 -468 116 -660 133 -107 9 -319 11 -400 3z"
       id="path14"
       style="fill:#d40000" />
    <path
       d="M4634 4909 c-514 -47 -929 -420 -1039 -934 -22 -99 -25 -320 -6 -425 60 -339 271 -640 565 -809 466 -267 1039 -188 1419 194 211 213 328 497 329 803 0 204 -34 356 -118 525 -60 120 -113 196 -203 289 -103 109 -185 169 -326 239 -136 67 -275 107 -400 115 -44 3 -93 6 -110 8 -16 1 -66 -1 -111 -5z"
       id="path16" />
    <path
       d="M2014 1149 c-173 -21 -280 -121 -303 -281 -27 -193 49 -314 253 -401 115 -49 166 -90 166 -134 0 -108 -166 -134 -329 -52 -42 21 -78 35 -81 33 -3 -3 -6 -63 -8 -133 l-4 -128 39 -16 c75 -30 158 -40 290 -34 144 5 175 13 253 59 64 39 110 96 139 173 34 90 37 152 12 235 -19 61 -31 81 -74 124 -29 28 -68 59 -87 68 -19 9 -79 38 -133 63 -81 38 -101 52 -112 77 -9 22 -10 40 -3 59 29 85 176 82 304 -5 28 -19 40 -22 45 -13 4 6 10 65 14 130 l7 117 -36 15 c-93 39 -241 57 -352 44z"
       id="path18" />
    <path
       d="M612 575 l-1 -555 168 0 169 0 -2 555 -1 555 -166 0 -166 0 -1 -555z"
       id="path20" />
    <path
       d="M1174 575 l0 -555 170 2 170 3 1 552 0 553 -170 0 -170 0 -1 -555z"
       id="path22" />
    <path
       d="M2618 608 c1 -288 2 -538 2 -555 l0 -33 344 0 c190 0 347 4 350 9 3 5 9 62 13 126 l6 118 -191 -5 -192 -6 0 104 c0 76 3 104 13 105 6 0 74 1 149 2 76 1 141 6 147 12 5 6 11 57 13 115 l3 105 -167 -3 -168 -4 0 101 0 101 180 0 180 0 0 115 0 115 -342 0 -343 0 3 -522z"
       id="path24" />
    <path
       d="M3487 1053 c4 -43 7 -292 6 -554 l-2 -477 32 -3 c18 -2 91 -3 164 -1 l132 4 -6 204 -6 204 25 0 c23 0 31 -14 92 -151 37 -82 76 -174 87 -203 14 -40 25 -55 42 -57 38 -7 305 6 314 14 4 5 -7 36 -25 70 -60 111 -203 399 -200 401 2 2 20 13 40 25 47 28 85 73 111 131 16 35 21 66 21 145 1 88 -2 107 -25 156 -34 71 -84 122 -146 145 -42 16 -88 19 -356 22 l-309 3 9 -78z m465 -164 c51 -20 69 -125 31 -177 -27 -37 -80 -62 -130 -62 l-43 0 0 124 c0 90 3 126 13 130 16 7 95 -2 129 -15z"
       id="path26" />
    <path
       d="M4780 570 l0 -551 58 3 57 3 3 222 2 223 148 0 c222 0 291 29 346 143 70 144 47 347 -51 439 -59 56 -88 62 -335 66 l-228 4 0 -552z m457 397 c50 -27 77 -88 77 -172 0 -79 -16 -118 -64 -158 -38 -32 -83 -39 -235 -35 l-120 3 -2 184 c-1 102 1 189 4 194 3 5 73 7 157 5 120 -3 158 -7 183 -21z"
       id="path28" />
    <path
       d="M5580 766 c0 -478 14 -567 106 -661 53 -55 105 -80 199 -95 172 -28 329 33 400 154 52 89 58 147 59 566 l1 385 -65 0 -65 0 -5 -400 c-4 -281 -10 -411 -19 -438 -30 -91 -109 -137 -233 -137 -80 0 -129 18 -176 63 -62 60 -65 88 -70 525 l-3 392 -65 0 -64 0 0 -354z"
       id="path30" />
    <path
       d="M6520 570 l0 -550 60 0 c41 0 60 4 60 13 -2 239 5 827 9 827 4 0 118 -189 255 -420 l248 -420 64 0 64 0 0 550 0 550 -60 0 -60 0 -2 -425 -3 -424 -250 422 -250 422 -68 3 -67 3 0 -551z"
       id="path32" />
    <path
       d="M7525 1108 c-3 -7 -4 -254 -3 -548 l3 -535 288 -3 287 -2 0 65 0 65 -235 0 -235 0 0 185 0 185 193 2 192 3 0 65 0 65 -192 3 -193 2 0 165 0 165 225 0 225 0 0 65 0 65 -275 0 c-211 0 -277 -3 -280 -12z"
       id="path34" />
  </g>
</svg>
