<?xml version="1.0" encoding="UTF-8" standalone="no"?>
<svg
   version="1.0"
   width="304.10901"
   height="327.04999"
   viewBox="0 0 228.08176 245.28749"
   preserveAspectRatio="xMidYMid"
   id="svg91"
   sodipodi:docname="555.svg"
   inkscape:version="1.2.2 (732a01da63, 2022-12-09)"
   xmlns:inkscape="http://www.inkscape.org/namespaces/inkscape"
   xmlns:sodipodi="http://sodipodi.sourceforge.net/DTD/sodipodi-0.dtd"
   xmlns="http://www.w3.org/2000/svg"
   xmlns:svg="http://www.w3.org/2000/svg">
  <defs
     id="defs95" />
  <sodipodi:namedview
     id="namedview93"
     pagecolor="#ffffff"
     bordercolor="#000000"
     borderopacity="0.25"
     inkscape:showpageshadow="2"
     inkscape:pageopacity="0.0"
     inkscape:pagecheckerboard="0"
     inkscape:deskcolor="#d1d1d1"
     inkscape:document-units="pt"
     showgrid="false"
     borderlayer="false"
     inkscape:zoom="0.40866873"
     inkscape:cx="599.50758"
     inkscape:cy="641.10606"
     inkscape:window-width="1366"
     inkscape:window-height="705"
     inkscape:window-x="-8"
     inkscape:window-y="-8"
     inkscape:window-maximized="1"
     inkscape:current-layer="svg91" />
  <g
     transform="matrix(0.02544613,0,0,-0.02545038,-0.07865828,245.58424)"
     fill="#0152cd"
     stroke="none"
     id="g89"
     style="stroke-width:3.92954">
    <path
       d="m 5192,9630 c -19,-18 -21,-50 -3,-50 4,0 13,-11 19,-25 l 12,-26 40,21 c 46,23 53,54 20,83 -27,23 -61,22 -88,-3 z"
       id="path9"
       style="stroke-width:3.92954" />
    <path
       d="m 4274,9467 c -3,-9 -1,-25 6,-36 10,-20 17,-23 65,-25 19,-1 20,-8 21,-134 1,-132 2,-134 31,-170 17,-20 39,-42 49,-47 10,-6 30,-18 44,-27 14,-10 59,-35 100,-57 78,-41 84,-50 65,-106 -5,-17 1,-24 29,-37 l 35,-17 21,28 c 11,16 20,37 20,47 0,28 -92,107 -167,144 -37,18 -87,48 -110,67 l -43,34 v 134 c 0,150 -2,145 78,145 72,0 73,-2 66,-120 -7,-101 -8,-103 -36,-114 -33,-12 -35,-26 -10,-49 24,-22 64,-22 91,1 19,15 21,29 23,142 l 3,125 35,5 c 39,6 52,33 23,48 -10,5 -101,12 -203,15 -102,3 -195,9 -207,13 -16,4 -25,2 -29,-9 z"
       id="path11"
       style="stroke-width:3.92954" />
    <path
       d="m 4753,9454 c -9,-25 10,-48 48,-56 19,-5 90,-13 158,-18 68,-5 125,-11 126,-12 5,-6 7,-33 6,-85 -1,-60 -12,-66 -52,-27 -70,67 -215,47 -249,-35 -25,-61 39,-154 127,-185 40,-14 44,-14 90,9 26,14 51,21 55,17 4,-4 2,-34 -4,-66 -12,-56 -12,-58 12,-77 47,-36 60,-19 60,80 0,29 5,95 11,145 6,50 14,116 18,146 6,52 8,55 36,57 17,0 36,2 43,2 16,1 15,23 -2,46 -14,20 -38,24 -236,45 -52,5 -124,14 -160,20 -84,12 -80,13 -87,-6 z m 272,-241 c 69,-35 50,-87 -41,-113 -43,-12 -73,-8 -111,16 -32,20 -32,77 -1,98 30,21 109,20 153,-1 z"
       id="path13"
       style="stroke-width:3.92954" />
    <path
       d="m 3916,9428 c -10,-6 -54,-12 -97,-15 -84,-6 -94,-11 -84,-42 7,-24 46,-34 78,-22 33,13 47,-3 47,-54 0,-22 4,-55 9,-73 6,-18 15,-87 22,-153 7,-73 17,-125 25,-132 37,-34 46,-38 60,-33 13,5 15,16 9,59 -3,28 -11,66 -16,84 -6,18 -14,67 -19,110 -5,43 -14,100 -20,128 -13,63 -10,71 34,79 47,9 48,37 3,58 -24,11 -38,13 -51,6 z"
       id="path15"
       style="stroke-width:3.92954" />
    <path
       d="m 3530,9365 c -68,-16 -94,-26 -92,-36 10,-39 45,-49 98,-29 37,15 54,-4 56,-62 3,-55 -9,-71 -74,-104 -78,-39 -97,-31 -74,34 13,35 12,43 -3,68 -25,41 -85,84 -117,84 -14,0 -41,-9 -60,-20 -69,-43 -51,-138 30,-160 31,-9 29,-25 -5,-65 -23,-26 -33,-47 -33,-70 0,-39 10,-53 64,-90 36,-25 49,-28 117,-27 l 77,1 47,-52 c 41,-45 49,-50 63,-38 25,21 19,36 -30,80 -40,35 -45,44 -40,68 10,46 -46,89 -93,72 -20,-8 -22,-14 -17,-44 6,-31 4,-35 -20,-41 -32,-8 -91,20 -99,46 -8,25 9,61 44,94 27,26 33,28 56,18 14,-7 48,-12 75,-12 37,0 55,6 79,26 17,14 35,23 40,20 5,-3 14,-34 20,-69 25,-143 55,-199 97,-183 19,7 18,41 -6,117 -22,68 -40,131 -64,219 -31,111 -31,105 11,130 36,21 37,23 18,36 -24,18 -49,16 -165,-11 z m -149,-129 c 14,-30 -1,-80 -25,-84 -23,-5 -66,36 -66,63 0,48 71,65 91,21 z"
       id="path17"
       style="stroke-width:3.92954" />
    <path
       d="m 5678,9302 c -23,-5 -24,-45 -2,-67 11,-11 26,-14 49,-9 47,9 102,-12 119,-45 13,-24 12,-29 -4,-51 -15,-20 -29,-25 -84,-28 -61,-4 -66,-6 -66,-28 0,-30 36,-54 81,-54 34,0 38,-3 44,-31 15,-68 -68,-114 -130,-73 -32,21 -71,87 -80,137 -6,33 -11,37 -36,37 -24,0 -29,-4 -29,-24 0,-14 5,-28 10,-31 6,-3 10,-14 10,-23 0,-52 82,-154 148,-184 41,-19 43,-19 86,0 34,15 48,29 62,61 19,43 34,51 54,26 7,-8 27,-15 46,-15 18,0 35,-4 38,-8 3,-5 -9,-43 -26,-85 -36,-86 -33,-129 10,-135 23,-4 31,9 50,83 5,22 24,85 42,140 17,55 35,115 40,133 12,49 37,74 60,60 25,-16 50,-4 43,22 -8,28 -33,43 -128,75 -44,14 -85,31 -92,37 -19,16 -43,2 -43,-26 0,-28 33,-56 65,-56 12,0 29,-6 39,-13 17,-12 17,-15 -1,-67 -33,-96 -37,-100 -98,-100 -46,0 -57,4 -84,31 -17,17 -31,35 -31,40 0,5 14,22 32,38 28,24 32,35 31,71 -2,50 -51,121 -98,143 -33,16 -99,26 -127,19 z"
       id="path19"
       style="stroke-width:3.92954" />
    <path
       d="m 2380,9210 c -57,-22 -110,-87 -110,-135 0,-45 27,-100 56,-115 41,-22 37,-39 -11,-60 -48,-21 -67,-46 -44,-61 23,-15 55,-10 83,12 29,23 53,20 62,-8 10,-29 66,-147 79,-163 6,-8 26,-49 45,-90 38,-81 63,-109 97,-110 37,0 39,36 6,83 -16,23 -44,71 -62,107 -35,68 -93,172 -114,203 -10,15 -7,22 22,46 34,28 34,29 14,40 -13,6 -40,8 -66,5 -39,-6 -46,-4 -66,21 -32,42 -36,70 -14,107 32,54 73,71 169,70 46,-1 93,-6 103,-12 30,-16 91,-13 91,5 0,19 -51,42 -135,60 -89,19 -148,17 -205,-5 z"
       id="path21"
       style="stroke-width:3.92954" />
    <path
       d="m 2969,9202 c -31,-15 -69,-32 -85,-39 -16,-6 -83,-34 -149,-61 -66,-28 -140,-56 -164,-63 -23,-7 -46,-19 -49,-27 -6,-18 27,-45 46,-37 52,20 62,18 76,-17 19,-45 34,-57 97,-73 36,-10 58,-11 71,-4 22,12 31,-5 26,-48 -3,-26 -6,-28 -51,-29 -85,-3 -121,-48 -74,-92 27,-25 63,-28 91,-7 11,8 26,15 33,15 15,0 62,-31 103,-68 34,-30 75,-26 75,8 0,20 -12,30 -72,60 -40,19 -73,39 -73,44 0,5 6,17 14,25 27,30 41,105 28,148 -11,36 -74,113 -94,113 -4,0 -8,7 -8,15 0,8 7,15 15,15 8,0 39,11 69,24 65,29 65,29 101,-70 25,-68 49,-130 66,-169 5,-11 18,-46 30,-78 15,-41 28,-61 45,-67 53,-21 69,14 35,79 -24,44 -52,108 -79,183 -22,58 -26,68 -56,125 -21,41 -21,40 19,57 41,17 44,29 13,50 -29,20 -32,20 -99,-12 z m -160,-201 c 34,-43 38,-63 16,-81 -29,-24 -125,28 -125,69 0,23 31,51 56,51 14,0 34,-14 53,-39 z"
       id="path23"
       style="stroke-width:3.92954" />
    <path
       d="m 6267,9113 c -13,-13 -7,-59 11,-73 9,-8 66,-37 125,-64 59,-27 110,-52 112,-57 7,-10 -55,-139 -66,-139 -5,0 -45,20 -89,44 -106,59 -115,61 -139,37 -25,-25 -25,-30 -3,-96 14,-42 21,-50 42,-50 19,0 26,6 28,23 2,13 10,26 18,29 18,7 103,-33 110,-51 3,-7 -9,-38 -25,-67 -31,-55 -37,-67 -46,-94 -3,-10 -17,-15 -44,-15 -44,0 -56,-16 -41,-55 8,-21 16,-25 54,-25 50,0 69,-16 64,-57 -2,-20 -12,-33 -36,-45 -75,-37 -145,26 -178,157 -9,39 -18,76 -20,83 -2,8 -12,12 -21,10 -15,-3 -18,-14 -17,-65 0,-34 5,-68 11,-75 6,-7 13,-25 16,-39 9,-36 82,-116 128,-139 59,-30 93,-26 134,16 30,31 35,42 35,85 0,26 -7,64 -16,83 l -17,34 80,164 c 44,90 83,173 87,186 8,24 26,28 58,11 14,-7 23,-8 30,-1 17,17 0,62 -27,72 -38,15 -68,29 -85,39 -8,5 -58,30 -110,56 -52,26 -109,56 -126,66 -17,10 -34,16 -37,12 z"
       id="path25"
       style="stroke-width:3.92954" />
    <path
       d="m 6710,8885 c -21,-26 2,-66 53,-92 26,-14 47,-31 47,-38 0,-16 -79,-135 -89,-135 -4,0 -17,11 -29,25 -26,30 -34,31 -56,6 -15,-16 -17,-33 -13,-103 4,-71 25,-240 30,-244 12,-9 45,-11 57,-4 13,8 12,18 -4,77 -34,120 -33,131 5,148 32,13 35,13 49,-6 38,-54 60,-69 94,-69 49,0 53,-15 17,-63 -80,-109 -83,-115 -76,-146 5,-26 11,-31 35,-31 22,0 29,6 35,27 3,14 40,78 81,142 92,143 95,148 117,177 l 18,23 34,-20 c 31,-19 36,-19 41,-5 10,26 -4,65 -29,77 -12,6 -67,41 -122,77 -55,35 -118,76 -140,91 -22,14 -63,42 -92,63 -43,31 -53,35 -63,23 z m 240,-214 c 3,-4 17,-12 32,-20 40,-20 40,-32 1,-89 l -34,-52 h -60 c -52,0 -63,4 -84,26 -14,15 -25,31 -25,36 0,5 21,40 46,79 l 46,69 37,-22 c 20,-12 38,-24 41,-27 z"
       id="path27"
       style="stroke-width:3.92954" />
    <path
       d="m 7225,8831 c -26,-5 -30,-11 -33,-44 -4,-50 12,-69 57,-65 34,3 36,5 39,40 3,36 -11,79 -26,77 -4,-1 -20,-4 -37,-8 z"
       id="path29"
       style="stroke-width:3.92954" />
    <path
       d="m 1953,8677 c -39,-32 -198,-146 -251,-180 -44,-28 -49,-42 -20,-60 23,-15 58,-2 113,42 111,89 128,101 140,101 13,0 95,-102 95,-117 0,-4 -41,-35 -90,-68 -49,-32 -92,-65 -95,-73 -13,-36 43,-74 112,-76 49,-1 66,24 35,57 -12,13 -22,26 -22,29 0,10 83,68 96,68 13,0 71,-77 98,-129 14,-27 22,-31 56,-31 55,0 53,22 -10,102 -28,34 -87,112 -132,172 l -81,109 22,18 c 12,10 27,19 33,21 6,2 9,12 5,21 -10,26 -69,22 -104,-6 z"
       id="path31"
       style="stroke-width:3.92954" />
    <path
       d="m 4185,8619 c -27,-5 -88,-14 -135,-19 -172,-20 -371,-61 -555,-114 -27,-8 -77,-21 -109,-30 -33,-9 -64,-20 -70,-26 -5,-5 -20,-10 -32,-10 -13,0 -25,-4 -29,-9 -3,-5 -20,-13 -38,-16 -17,-4 -57,-18 -87,-32 -30,-14 -77,-34 -104,-45 -44,-17 -221,-103 -271,-132 -98,-55 -163,-93 -180,-103 -11,-7 -27,-15 -35,-19 -30,-15 -178,-119 -300,-212 -268,-204 -499,-438 -707,-714 -57,-75 -103,-139 -103,-143 0,-3 -13,-23 -29,-43 -16,-20 -57,-84 -90,-142 -34,-58 -66,-112 -71,-120 -15,-26 -150,-299 -150,-305 0,-4 -11,-30 -24,-58 -13,-29 -34,-81 -47,-117 -12,-36 -26,-69 -29,-75 -4,-5 -10,-21 -13,-35 -3,-14 -17,-56 -31,-94 -14,-38 -26,-77 -26,-86 0,-10 -7,-42 -16,-71 -31,-109 -43,-155 -54,-204 -18,-87 -40,-236 -51,-350 -5,-60 -14,-137 -18,-170 -12,-88 -13,-418 -1,-505 6,-41 15,-120 20,-175 15,-155 43,-322 76,-450 9,-33 22,-85 30,-115 27,-105 128,-401 153,-447 5,-10 16,-34 23,-53 18,-47 178,-364 214,-423 16,-27 34,-56 39,-65 35,-58 133,-203 160,-237 194,-247 260,-322 421,-480 182,-179 364,-323 615,-485 42,-27 94,-58 115,-70 21,-12 59,-33 84,-46 99,-56 172,-91 335,-164 64,-29 282,-106 380,-135 50,-15 110,-33 135,-40 42,-13 78,-21 270,-59 227,-44 348,-54 675,-56 333,-1 424,8 755,71 144,28 179,37 300,73 25,8 72,21 105,31 58,16 107,34 172,61 17,8 35,14 40,14 25,0 315,136 453,213 111,61 375,230 390,248 3,4 21,17 40,30 19,14 44,32 55,41 66,54 164,136 189,157 67,58 287,281 347,352 128,152 146,175 172,214 15,22 51,74 81,115 45,61 116,176 203,325 19,34 83,165 83,172 0,4 6,14 13,22 8,9 24,41 36,71 30,75 52,127 85,202 9,20 16,41 16,47 0,6 6,25 14,43 32,77 92,281 106,360 5,27 12,53 16,60 9,15 18,60 44,233 32,209 43,365 43,600 0,241 -10,386 -43,600 -12,77 -24,156 -27,175 -3,19 -9,40 -14,45 -4,6 -13,35 -18,65 -6,30 -20,89 -31,130 -12,41 -26,89 -30,105 -11,38 -71,205 -100,276 -12,30 -26,63 -30,74 -9,22 -179,367 -195,393 -71,120 -86,144 -159,254 -188,280 -475,590 -740,802 -34,26 -74,59 -90,72 -68,55 -307,215 -381,254 -27,15 -90,48 -140,75 -169,90 -281,141 -440,200 -38,15 -86,32 -105,39 -42,16 -78,27 -185,56 -44,12 -100,28 -125,35 -25,7 -85,20 -135,29 -49,9 -126,23 -171,31 -45,8 -99,15 -120,16 -21,0 -70,6 -109,13 -83,16 -632,19 -710,5 z m 662,-70 c 130,-11 283,-32 383,-54 36,-8 99,-21 140,-30 73,-15 142,-34 225,-61 22,-7 65,-20 95,-29 30,-8 71,-22 90,-29 98,-38 128,-50 157,-62 17,-8 33,-14 36,-14 17,0 342,-166 417,-213 19,-12 40,-24 45,-27 41,-21 116,-68 146,-92 20,-15 40,-28 44,-28 4,0 22,-12 41,-27 18,-16 51,-41 74,-58 42,-31 79,-60 196,-157 75,-62 354,-343 419,-422 98,-120 262,-345 285,-391 3,-5 21,-35 41,-65 86,-133 240,-441 280,-565 7,-22 19,-49 26,-60 7,-11 13,-28 13,-38 0,-10 7,-32 16,-48 8,-17 24,-63 34,-102 10,-40 23,-85 29,-102 24,-73 42,-151 70,-300 61,-326 65,-367 65,-700 0,-316 -3,-351 -50,-630 -86,-505 -286,-1006 -569,-1422 -92,-136 -197,-275 -248,-328 -7,-7 -34,-40 -62,-73 -85,-105 -291,-300 -449,-427 -20,-16 -51,-42 -69,-56 -58,-47 -250,-175 -357,-238 -58,-34 -112,-65 -120,-70 -29,-18 -279,-141 -285,-141 -4,0 -31,-11 -62,-25 -59,-27 -208,-82 -258,-95 -16,-4 -41,-12 -55,-17 -48,-20 -125,-42 -165,-49 -22,-3 -53,-10 -70,-14 -141,-40 -283,-65 -490,-87 -116,-13 -699,-9 -810,5 -123,15 -262,39 -335,58 -30,7 -86,20 -125,29 -86,19 -168,43 -215,60 -19,7 -64,22 -100,34 -91,29 -138,46 -201,74 -30,13 -74,32 -99,42 -25,10 -51,23 -58,29 -7,5 -48,26 -90,46 -82,39 -99,48 -226,123 -169,101 -400,268 -536,388 -174,153 -400,395 -526,564 -69,92 -229,333 -244,367 -6,13 -26,50 -45,83 -19,33 -39,69 -44,80 -5,11 -34,73 -65,137 -31,65 -56,120 -56,124 0,3 -6,20 -14,37 -7,18 -21,52 -31,77 -9,25 -21,54 -26,65 -9,20 -63,191 -79,250 -37,137 -49,185 -54,220 -4,22 -13,72 -21,110 -53,259 -73,577 -55,878 7,116 18,244 26,282 8,39 14,82 14,98 0,15 6,53 14,85 8,31 22,95 31,142 15,77 29,130 57,215 5,17 20,66 33,110 12,44 27,91 33,105 6,14 27,67 47,118 19,51 39,101 44,110 5,9 23,49 41,87 17,39 36,77 41,85 5,8 15,29 23,45 29,59 92,171 120,215 230,356 394,558 635,780 188,174 231,210 371,308 111,77 272,183 300,195 8,4 35,19 60,33 42,25 247,128 315,159 109,49 212,86 490,174 17,6 73,19 125,31 52,11 122,27 155,34 237,55 721,81 1022,55 z"
       id="path33"
       style="stroke-width:3.92954" />
    <path
       d="m 4200,8480 c -30,-4 -109,-13 -175,-20 -66,-7 -135,-19 -154,-26 -18,-8 -47,-14 -63,-14 -16,0 -50,-6 -76,-14 -26,-8 -83,-22 -127,-32 -44,-9 -89,-22 -100,-27 -11,-6 -33,-14 -50,-18 -16,-4 -75,-24 -130,-44 -55,-20 -109,-39 -120,-42 -11,-3 -25,-10 -31,-14 -6,-5 -28,-15 -50,-23 -34,-12 -120,-50 -234,-104 -19,-10 -53,-28 -75,-42 -22,-13 -60,-35 -85,-47 -25,-13 -57,-31 -71,-40 -15,-10 -55,-36 -90,-57 -35,-22 -89,-58 -119,-80 -30,-23 -64,-48 -76,-56 -177,-123 -456,-386 -625,-590 -101,-121 -260,-345 -305,-430 -11,-19 -29,-49 -40,-65 -38,-54 -214,-413 -214,-437 0,-8 -7,-23 -15,-34 -8,-10 -15,-28 -15,-39 0,-12 -4,-25 -9,-30 -11,-11 -38,-81 -53,-140 -6,-22 -15,-44 -19,-49 -5,-6 -9,-21 -9,-34 0,-13 -5,-33 -12,-45 -6,-12 -17,-48 -25,-79 -7,-32 -20,-86 -28,-120 -9,-35 -19,-89 -24,-120 -5,-32 -12,-62 -16,-68 -4,-6 -16,-79 -26,-163 -23,-187 -33,-564 -18,-747 12,-154 34,-324 44,-341 4,-6 11,-36 16,-67 13,-93 51,-258 74,-322 7,-19 27,-80 45,-135 17,-55 38,-113 45,-130 8,-16 29,-68 47,-115 18,-47 38,-92 45,-101 7,-8 13,-20 13,-26 0,-6 6,-24 14,-40 8,-15 24,-48 36,-73 11,-25 30,-61 42,-80 11,-19 31,-55 45,-80 13,-25 33,-58 44,-75 10,-16 22,-37 26,-45 3,-8 19,-31 35,-51 15,-20 28,-40 28,-44 0,-7 83,-125 112,-160 9,-11 48,-60 87,-110 39,-49 132,-153 206,-231 116,-121 179,-181 304,-286 56,-48 239,-183 290,-216 31,-19 87,-55 124,-79 37,-24 75,-47 85,-50 9,-3 50,-26 89,-50 40,-23 75,-43 78,-43 3,0 48,-20 101,-45 52,-25 100,-45 106,-45 5,0 22,-6 36,-14 24,-13 91,-39 237,-93 22,-9 56,-22 75,-29 19,-8 76,-23 126,-33 50,-10 100,-24 112,-30 11,-6 34,-11 51,-11 16,0 42,-5 58,-11 40,-15 160,-37 244,-44 41,-3 126,-13 190,-21 209,-28 649,-9 937,41 46,8 88,17 93,21 5,3 30,9 57,14 124,24 318,78 366,102 10,5 51,20 92,34 74,24 82,27 141,58 17,9 36,16 43,16 10,0 104,43 268,124 35,17 68,37 74,43 6,7 15,13 21,13 37,0 443,284 572,401 22,20 69,62 105,94 36,33 73,68 83,79 10,12 53,57 95,101 80,84 107,115 212,248 100,127 169,233 320,487 26,44 133,273 161,345 12,33 27,64 31,70 4,5 8,19 8,31 0,12 7,27 15,34 8,7 15,19 15,28 0,8 12,47 26,86 15,39 30,87 35,106 4,19 17,69 29,110 22,75 43,175 61,283 5,33 12,64 16,70 3,6 10,49 14,96 5,47 13,129 18,181 13,123 13,468 0,590 -28,265 -39,340 -61,410 -6,19 -13,53 -15,75 -3,22 -13,72 -24,110 -10,39 -24,90 -30,115 -6,25 -15,54 -20,65 -15,35 -40,109 -48,140 -4,17 -12,39 -18,50 -19,35 -43,95 -43,105 0,30 -168,368 -241,485 -10,17 -22,37 -26,45 -4,8 -26,43 -50,77 -24,35 -43,66 -43,69 0,5 -148,205 -159,214 -3,3 -31,37 -62,75 -102,128 -371,390 -509,496 -24,18 -51,40 -60,47 -59,49 -95,75 -165,120 -44,28 -88,57 -98,64 -45,33 -322,188 -334,188 -6,0 -34,13 -64,29 -30,15 -65,32 -79,36 -14,4 -47,17 -75,30 -78,35 -145,60 -207,79 -32,10 -60,22 -64,27 -3,5 -16,9 -30,9 -14,0 -37,6 -52,13 -15,7 -63,21 -107,31 -44,10 -101,24 -127,32 -26,8 -58,14 -72,14 -13,0 -37,5 -53,11 -15,6 -77,17 -138,25 -60,7 -146,17 -190,22 -95,11 -596,13 -675,2 z m 437,-47 c 6,-16 -15,-177 -37,-285 -6,-27 -14,-68 -18,-92 -10,-50 -38,-100 -52,-91 -6,4 -10,22 -10,41 0,20 -4,43 -10,53 -21,40 -59,344 -47,376 10,23 165,22 174,-2 z m -231,-43 c 4,-142 40,-323 71,-361 18,-21 17,-59 -2,-59 -7,0 -18,6 -22,13 -4,7 -19,20 -33,29 -35,23 -109,95 -152,148 -38,47 -108,179 -108,203 0,8 -7,20 -15,27 -11,9 -12,17 -4,31 9,18 20,19 137,17 l 127,-3 z m 494,40 c 64,-12 66,-14 52,-43 -6,-12 -14,-33 -18,-47 -4,-14 -17,-41 -29,-60 -12,-19 -29,-51 -39,-70 -19,-42 -121,-151 -191,-205 -27,-21 -56,-46 -63,-54 -7,-9 -16,-11 -22,-5 -6,6 2,31 20,69 35,71 47,119 67,280 8,66 17,126 19,133 4,15 128,16 204,2 z m -812,-22 c 7,-7 12,-22 12,-35 0,-13 4,-31 9,-41 5,-9 26,-52 47,-95 25,-53 61,-103 107,-153 64,-69 160,-137 203,-146 38,-7 22,-26 -33,-37 -65,-14 -211,-10 -288,8 -163,37 -291,120 -410,265 -22,26 -40,53 -40,59 0,5 23,15 50,22 54,14 111,67 117,109 2,16 12,23 43,28 22,4 58,11 80,16 58,14 89,14 103,0 z m 1024,-9 c 9,-5 29,-9 45,-9 48,0 71,-11 77,-35 10,-41 55,-83 106,-100 27,-9 52,-21 55,-25 3,-5 -20,-38 -52,-72 -67,-74 -94,-99 -148,-136 -22,-15 -42,-29 -45,-32 -22,-22 -184,-80 -223,-80 -11,0 -37,-5 -58,-12 -30,-9 -62,-8 -139,2 -55,7 -103,16 -105,21 -3,4 19,20 48,34 50,23 137,90 163,125 7,8 26,31 42,50 17,19 47,68 67,110 20,41 41,83 46,92 5,10 9,31 9,47 0,16 6,32 13,34 15,7 76,-3 99,-14 z m -1312,-42 c 0,-29 -47,-59 -96,-60 -46,-2 -49,0 -49,23 0,22 6,26 55,37 75,15 90,15 90,0 z m 1629,-23 23,-16 -21,-21 c -19,-19 -24,-20 -58,-8 -40,14 -83,48 -83,64 0,15 110,-1 139,-19 z m -1828,-14 c 12,-7 19,-21 19,-38 0,-53 -88,-78 -164,-47 -47,20 -42,36 15,54 24,7 58,19 74,27 38,16 33,16 56,4 z m 1979,-26 c 44,-14 82,-29 85,-34 10,-16 -45,-40 -90,-40 -52,0 -105,23 -105,46 0,17 18,54 26,54 3,0 41,-12 84,-26 z m -2232,-67 c 2,-10 -6,-19 -22,-23 -45,-11 -65,19 -23,36 28,11 41,8 45,-13 z m 2442,-2 c 14,-17 7,-45 -13,-45 -17,0 -59,44 -50,53 12,12 50,7 63,-8 z m -2361,-22 c 30,-24 46,-28 97,-28 45,0 67,5 81,18 30,27 52,21 69,-18 44,-106 304,-305 398,-305 12,0 28,-6 35,-12 8,-9 57,-13 170,-13 137,0 162,2 178,18 20,17 44,22 56,11 5,-5 -25,-57 -43,-74 -3,-3 -27,-40 -54,-82 -26,-43 -53,-84 -59,-90 -7,-7 -23,-26 -35,-43 -212,-275 -510,-477 -866,-584 -38,-12 -75,-21 -83,-21 -7,0 -21,-4 -31,-9 -29,-15 -230,-34 -357,-33 -126,2 -296,18 -330,32 -24,11 -107,30 -155,37 -58,8 -64,11 -50,28 7,9 34,26 60,39 139,70 265,237 324,428 14,46 17,83 13,195 -2,76 -6,147 -8,157 -3,16 6,22 51,33 83,22 140,88 140,164 0,26 3,30 12,21 22,-22 76,-15 94,13 13,20 25,25 55,25 29,0 45,6 60,24 17,19 28,24 50,19 35,-7 78,23 79,55 0,28 5,28 49,-5 z m -204,-24 c 0,-25 -23,-36 -52,-25 -14,6 -13,10 7,31 28,30 45,28 45,-6 z m 2255,16 c 31,-37 149,-38 176,-1 17,23 31,20 56,-14 17,-24 29,-30 60,-30 29,0 44,-7 65,-30 27,-31 58,-39 66,-17 4,8 15,2 33,-18 22,-24 36,-30 68,-30 39,0 41,-1 44,-35 4,-40 51,-104 93,-125 15,-8 47,-15 70,-15 40,0 41,-1 35,-27 -30,-136 -30,-234 1,-342 37,-130 115,-263 201,-343 59,-56 125,-98 151,-98 11,0 25,-9 31,-19 18,-34 12,-44 -20,-38 -16,4 -61,-2 -102,-13 -40,-11 -84,-20 -98,-20 -15,0 -30,-4 -36,-10 -14,-14 -364,-23 -479,-11 -100,10 -211,30 -230,42 -5,4 -26,10 -45,14 -62,12 -122,34 -243,89 -44,20 -80,36 -83,36 -11,0 -171,103 -239,154 -95,71 -239,215 -307,306 -26,36 -55,74 -63,85 -8,10 -15,22 -15,26 0,4 -22,40 -50,80 -35,53 -46,77 -39,86 11,13 50,3 78,-20 20,-17 285,-17 302,1 7,6 23,12 36,12 101,0 353,179 414,296 25,45 47,55 69,29 z m 423,-12 c 21,-6 22,-29 2,-37 -14,-5 -65,9 -65,18 0,20 15,36 29,30 9,-3 24,-9 34,-11 z m -2788,-43 c 9,-15 -14,-40 -36,-40 -22,0 -33,16 -25,35 6,17 52,20 61,5 z m 2905,-12 c 24,-26 13,-43 -23,-34 -25,6 -42,31 -31,47 9,15 32,10 54,-13 z m -3034,-52 c 3,-8 -4,-34 -15,-59 -16,-34 -31,-50 -64,-66 -57,-28 -81,-26 -106,5 -24,31 -18,45 32,65 18,7 37,17 42,22 18,15 80,46 93,46 7,1 15,-5 18,-13 z m 3216,-40 c 87,-47 101,-65 72,-97 -20,-22 -26,-23 -75,-9 -46,13 -81,45 -103,93 -32,70 -8,73 106,13 z m -3450,-83 c 22,-20 23,-31 1,-55 -12,-13 -30,-18 -69,-18 -29,0 -55,4 -58,9 -4,7 84,75 103,80 3,1 13,-6 23,-16 z m 3620,-13 c 14,-11 37,-24 52,-30 61,-23 9,-56 -60,-38 -52,14 -62,28 -46,64 14,29 22,30 54,4 z M 2616,7835 c 25,-19 85,-19 110,0 25,19 60,19 68,-1 3,-9 6,-65 6,-125 0,-134 -16,-202 -78,-329 -39,-78 -62,-109 -135,-182 -77,-77 -142,-127 -152,-116 -2,2 8,35 22,73 23,61 26,85 27,190 0,120 -11,172 -50,247 -8,14 -14,31 -14,37 0,6 -11,29 -25,51 l -25,39 45,33 c 25,18 64,47 88,65 46,35 83,41 113,18 z m 3720,0 c 26,-20 118,-20 134,0 19,22 46,18 82,-13 18,-15 47,-36 63,-46 17,-11 37,-25 45,-33 8,-7 25,-21 38,-31 l 23,-17 -41,-78 c -22,-43 -40,-86 -40,-96 0,-9 -4,-21 -10,-27 -5,-5 -16,-52 -24,-104 -14,-94 -12,-134 12,-238 13,-57 -3,-63 -53,-20 -53,46 -145,140 -145,149 0,4 -7,14 -15,23 -19,19 -85,155 -85,176 0,9 -4,20 -10,26 -14,14 -30,188 -24,259 9,93 13,98 50,70 z m -1752,-77 c 89,-179 252,-367 451,-519 53,-41 259,-169 272,-169 2,0 30,-12 61,-26 80,-37 147,-63 190,-74 20,-5 64,-16 97,-25 130,-36 207,-46 391,-52 153,-4 209,-2 285,11 104,18 190,41 231,62 14,8 36,14 48,14 25,0 25,4 -8,-95 -35,-101 -41,-127 -53,-215 -17,-119 -23,-355 -10,-415 5,-27 14,-79 20,-115 21,-136 46,-238 69,-274 3,-6 19,-46 33,-88 15,-43 36,-90 46,-105 10,-16 29,-50 43,-78 75,-157 280,-401 445,-529 33,-26 65,-50 71,-55 26,-21 170,-101 181,-101 32,0 20,-23 -23,-41 -47,-21 -195,-107 -204,-119 -3,-4 -27,-24 -55,-45 -79,-59 -177,-156 -269,-265 -70,-83 -195,-296 -236,-400 -11,-30 -27,-69 -35,-87 -8,-17 -15,-38 -15,-46 0,-9 -4,-18 -9,-21 -5,-4 -12,-29 -16,-58 -4,-29 -11,-59 -16,-68 -5,-8 -13,-44 -19,-80 -6,-36 -15,-87 -20,-115 -5,-27 -9,-124 -9,-215 0,-91 4,-187 9,-215 5,-27 14,-78 20,-111 6,-34 22,-92 35,-130 13,-38 21,-72 17,-76 -4,-4 -26,2 -49,13 -39,18 -86,31 -223,60 -69,16 -336,22 -425,10 -193,-25 -327,-53 -349,-73 -6,-4 -17,-8 -25,-8 -9,0 -29,-7 -45,-15 -15,-8 -33,-15 -38,-15 -9,0 -88,-33 -118,-49 -8,-4 -46,-25 -85,-46 -72,-38 -190,-114 -233,-150 -72,-59 -202,-177 -202,-183 0,-4 -19,-27 -43,-52 -70,-73 -152,-190 -188,-267 -19,-40 -39,-73 -45,-73 -6,0 -26,33 -44,73 -32,69 -92,163 -148,230 -39,47 -235,240 -261,257 -13,8 -33,23 -44,34 -80,68 -373,226 -421,226 -8,0 -17,4 -20,9 -3,5 -22,12 -42,16 -20,3 -44,10 -53,15 -91,49 -437,88 -626,70 -223,-20 -291,-34 -372,-77 -25,-13 -35,-15 -44,-6 -9,9 -9,15 0,26 15,18 50,127 62,192 6,27 14,73 20,100 12,64 12,385 0,450 -9,46 -24,116 -50,240 -6,28 -15,59 -20,70 -4,11 -18,45 -30,75 -114,284 -320,570 -525,727 -33,25 -64,50 -70,55 -27,23 -119,78 -175,104 -66,32 -76,48 -33,57 31,7 188,100 229,137 15,14 40,33 55,42 39,25 226,217 233,239 4,10 10,19 14,19 10,0 130,181 157,235 10,22 22,42 25,45 4,3 23,46 44,95 20,50 41,99 46,110 19,43 49,149 49,174 0,15 4,31 9,37 10,9 25,103 43,268 7,70 7,133 0,220 -18,194 -28,245 -73,374 -11,30 -19,58 -19,63 0,13 34,11 47,-2 15,-15 96,-42 193,-66 111,-27 497,-26 625,1 50,11 94,23 100,28 5,4 20,8 35,8 14,0 38,7 54,15 15,8 36,15 45,15 9,0 29,7 45,15 15,8 33,15 38,15 12,0 221,101 228,110 3,4 37,25 75,48 39,23 83,52 98,64 122,100 191,163 247,226 36,41 70,79 76,86 45,48 149,221 168,279 10,31 24,18 60,-55 z M 2367,7615 c 14,-33 28,-67 33,-76 31,-59 33,-406 3,-416 -7,-3 -26,24 -44,59 -44,89 -131,218 -183,275 -25,26 -46,53 -46,59 0,7 24,30 53,52 28,23 70,57 92,77 22,19 46,34 54,33 8,-2 25,-30 38,-63 z m 4476,-17 c 40,-34 80,-69 90,-77 26,-23 21,-40 -28,-90 -64,-65 -136,-167 -176,-250 -19,-39 -38,-70 -44,-68 -5,2 -16,14 -23,28 -15,28 -11,248 6,289 6,14 18,49 27,79 22,74 57,151 67,151 5,0 41,-28 81,-62 z M 2125,7438 c 30,-35 115,-149 115,-153 0,-2 20,-33 45,-69 25,-37 45,-70 45,-75 0,-4 9,-16 20,-26 11,-10 20,-24 20,-30 0,-19 -28,-26 -43,-11 -7,7 -26,20 -42,29 -25,12 -150,102 -190,134 -70,58 -125,109 -125,116 0,5 24,35 53,67 55,61 64,63 102,18 z m 4933,-37 c 57,-53 63,-71 30,-94 -13,-8 -34,-25 -48,-37 -45,-40 -207,-147 -257,-169 -11,-5 -24,-15 -28,-20 -8,-14 -45,-14 -45,-2 0,6 11,22 25,37 13,14 37,47 51,73 15,25 61,88 103,140 42,51 80,100 86,107 16,22 26,17 83,-35 z M 2010,7240 c 40,-38 93,-82 119,-96 25,-15 48,-30 51,-33 10,-11 72,-41 85,-41 14,0 55,-38 55,-51 0,-4 -73,-6 -162,-5 -163,2 -228,13 -315,52 -17,8 -35,14 -40,14 -4,0 -19,9 -31,18 l -24,18 29,35 c 15,19 42,50 60,69 17,19 41,47 53,63 12,15 27,27 34,27 7,0 46,-31 86,-70 z m 5229,-35 c 39,-44 71,-85 71,-91 0,-6 -15,-18 -32,-26 -118,-57 -197,-72 -363,-72 -135,0 -140,1 -143,22 -3,16 3,23 25,28 26,5 48,16 161,75 24,13 75,53 115,90 41,38 77,64 84,60 6,-3 43,-42 82,-86 z M 1745,7061 c 5,-9 108,-60 150,-76 33,-12 126,-27 198,-32 62,-4 168,15 243,44 30,11 -22,-63 -95,-137 -148,-149 -268,-198 -508,-207 -125,-5 -143,-4 -143,10 0,8 5,17 12,19 7,3 11,30 12,70 1,50 -3,71 -16,85 -27,29 -22,49 25,111 24,31 52,72 62,90 19,31 48,42 60,23 z m 5654,-53 c 22,-35 55,-82 73,-106 29,-39 31,-45 20,-75 -20,-55 -15,-140 9,-171 15,-19 17,-27 7,-30 -41,-13 -171,-28 -199,-23 -100,15 -165,29 -173,38 -6,5 -17,9 -26,9 -29,0 -146,66 -206,116 -60,50 -153,154 -166,186 -4,10 -12,18 -18,18 -5,0 -10,9 -10,20 0,24 35,27 60,5 17,-15 140,-39 200,-38 116,1 253,36 330,84 25,16 48,29 51,29 3,0 25,-28 48,-62 z m -4977,-78 c 3,-25 14,-81 22,-125 35,-173 39,-206 39,-370 0,-163 -5,-213 -37,-370 -22,-106 -36,-155 -60,-210 -12,-27 -33,-79 -46,-115 -13,-36 -28,-72 -35,-80 -6,-8 -26,-44 -45,-80 -19,-36 -38,-69 -42,-75 -5,-5 -37,-48 -72,-95 -116,-156 -254,-283 -441,-404 -49,-32 -102,-67 -117,-77 -15,-10 -30,-19 -34,-19 -9,0 2,59 21,110 14,37 16,70 13,180 -3,74 -9,144 -15,155 -5,11 -17,36 -25,55 -54,126 -86,176 -162,255 -45,45 -98,92 -118,105 -39,22 -44,29 -30,46 5,5 16,29 25,54 16,43 16,48 -2,95 -10,27 -24,51 -30,53 -21,7 -11,43 22,72 28,25 31,31 19,49 -11,18 -8,25 19,53 23,25 29,39 25,59 -4,20 2,33 25,55 30,29 37,62 17,82 -9,9 -9,12 2,13 67,5 92,10 120,27 45,28 79,88 80,140 0,37 3,42 23,42 13,0 28,-5 34,-11 13,-13 196,-7 283,9 191,36 381,168 454,317 34,70 58,72 68,5 z m 4296,-28 c 29,-59 105,-151 152,-183 19,-13 37,-26 40,-29 35,-35 144,-86 260,-121 59,-18 294,-19 312,-1 25,25 45,14 57,-34 7,-25 19,-57 27,-70 21,-32 75,-64 108,-64 24,0 26,-3 26,-44 0,-36 5,-49 25,-64 18,-14 25,-30 25,-53 0,-34 24,-69 47,-69 7,0 13,-7 13,-15 0,-8 -4,-15 -10,-15 -5,0 -10,-10 -10,-23 0,-25 31,-59 64,-71 18,-6 17,-9 -9,-36 -24,-25 -30,-41 -33,-90 -4,-53 -1,-65 22,-98 34,-49 33,-58 -7,-77 -18,-8 -57,-36 -87,-62 -58,-52 -170,-197 -170,-222 0,-9 -7,-25 -15,-35 -8,-11 -15,-29 -15,-41 0,-12 -4,-25 -9,-30 -18,-20 -41,-138 -41,-213 0,-46 8,-104 19,-145 16,-53 17,-69 7,-73 -14,-5 -207,121 -296,193 -193,157 -329,325 -438,538 -9,17 -19,32 -22,35 -4,3 -11,16 -15,30 -4,14 -18,48 -31,77 -13,28 -24,57 -24,63 0,6 -6,21 -12,33 -22,38 -43,130 -78,342 -5,33 -10,121 -10,195 0,74 5,162 10,195 13,78 37,212 45,250 3,17 8,40 11,53 8,38 37,25 62,-26 z m -5158,-91 c 15,-28 12,-88 -5,-121 -18,-34 -17,-34 -62,-18 -32,12 -45,40 -23,53 6,4 22,29 35,56 27,53 39,59 55,30 z m 6000,-33 c 30,-45 59,-113 52,-119 -4,-4 -17,-10 -28,-13 -29,-9 -64,46 -64,101 0,57 15,69 40,31 z M 1508,6617 c 19,-15 14,-57 -10,-93 -30,-43 -89,-76 -130,-72 -29,3 -33,6 -30,28 2,14 10,32 17,40 7,8 24,38 39,67 14,28 31,53 38,56 13,4 53,-10 76,-26 z m 6173,-53 c 14,-28 33,-62 42,-75 26,-37 21,-49 -19,-49 -52,0 -124,71 -124,122 0,41 16,60 50,56 19,-2 31,-16 51,-54 z M 1326,6379 c 9,-15 -16,-59 -33,-59 -20,0 -26,25 -13,49 12,23 35,28 46,10 z m 6462,-37 c 3,-27 0,-33 -14,-30 -23,4 -39,31 -31,52 12,30 42,14 45,-22 z m -6513,-72 c 10,-16 -4,-49 -26,-60 -24,-13 -34,7 -25,45 7,25 39,35 51,15 z m 6559,-13 c 22,-16 18,-50 -6,-55 -19,-4 -42,33 -34,54 7,17 17,18 40,1 z M 1220,6150 c 12,-22 -5,-60 -28,-60 -21,0 -25,27 -7,54 21,31 21,31 35,6 z m 6666,-38 c 6,-28 4,-32 -14,-32 -24,0 -39,45 -21,66 15,19 27,7 35,-34 z m -6721,-88 c 21,-8 55,-76 55,-110 0,-28 -28,-94 -40,-94 -4,0 -24,7 -44,15 -40,17 -43,29 -21,95 8,25 17,57 20,73 6,30 6,30 30,21 z m 6770,-55 c 4,-23 14,-57 21,-75 19,-46 17,-71 -6,-84 -31,-17 -59,-3 -75,37 -19,45 -19,81 0,127 22,52 51,49 60,-5 z M 1136,5787 c 23,-20 25,-28 19,-56 -7,-34 -84,-121 -106,-121 -13,0 -4,91 12,121 5,10 9,28 9,42 0,44 25,49 66,14 z m 6865,-47 c 3,-19 11,-48 18,-63 14,-35 14,-67 0,-67 -20,0 -72,58 -84,93 -11,32 -10,38 7,57 28,30 51,22 59,-20 z m -6739,-27 c 45,-40 60,-55 119,-120 36,-39 109,-168 109,-191 0,-7 4,-12 8,-12 14,0 35,-118 40,-215 5,-122 -24,-249 -44,-188 -28,87 -140,210 -245,270 -76,43 -183,83 -225,83 -35,0 -47,31 -30,72 8,18 18,59 21,90 6,54 8,57 38,64 68,15 137,82 137,133 0,26 10,51 21,51 5,0 28,-17 51,-37 z m 6635,-46 c 24,-47 69,-89 109,-101 27,-8 41,-42 52,-126 5,-36 13,-73 17,-82 5,-13 0,-19 -22,-23 -158,-34 -284,-115 -401,-259 -7,-9 -24,-38 -37,-65 -31,-60 -52,-80 -61,-57 -10,26 1,329 13,351 6,11 21,47 33,80 13,33 42,89 66,125 45,69 182,212 199,207 5,-2 20,-24 32,-50 z M 1070,5276 c 104,-37 119,-44 177,-83 58,-39 153,-132 203,-199 23,-33 27,-43 16,-47 -8,-3 -20,1 -26,9 -7,8 -19,14 -27,14 -8,0 -29,6 -46,14 -80,35 -148,49 -272,55 l -130,6 1,45 c 2,97 17,210 28,210 6,0 40,-11 76,-24 z m 7021,-96 c 3,-58 9,-113 13,-122 10,-22 -10,-27 -129,-31 -99,-4 -209,-23 -240,-42 -28,-18 -83,-26 -90,-15 -6,10 76,114 120,152 30,27 156,111 185,124 14,6 41,18 60,27 69,31 74,25 81,-93 z M 1165,4980 c 165,-31 317,-72 317,-84 -1,-26 -253,-78 -439,-92 l -83,-7 v 95 c 0,52 3,98 7,101 8,8 128,0 198,-13 z m 6936,-10 c 5,0 9,-40 9,-90 0,-101 8,-93 -89,-90 -59,2 -114,11 -211,35 -36,9 -90,21 -120,27 -56,11 -103,34 -95,47 2,4 44,15 92,25 48,9 104,22 123,27 37,11 246,28 268,23 8,-2 18,-4 23,-4 z m -558,-111 c -1,-8 -12,-41 -24,-74 -35,-95 -32,-266 8,-370 32,-85 75,-175 94,-199 5,-6 30,-37 55,-68 48,-60 134,-131 172,-143 27,-8 29,-36 2,-60 -48,-43 -50,-130 -4,-190 15,-20 25,-37 23,-38 -2,-2 -16,-11 -31,-20 -31,-19 -46,-60 -29,-80 8,-10 4,-19 -19,-36 -24,-17 -30,-29 -30,-59 0,-28 -8,-44 -30,-66 -33,-33 -38,-60 -14,-74 25,-14 7,-32 -32,-32 -50,0 -108,-40 -133,-93 -11,-24 -21,-51 -21,-60 0,-26 -30,-33 -62,-14 -23,13 -55,17 -146,17 -63,0 -129,-4 -146,-10 -163,-51 -194,-64 -266,-114 -72,-49 -162,-149 -200,-220 -19,-36 -40,-66 -46,-66 -7,0 -14,17 -17,38 -3,20 -12,71 -21,112 -8,41 -20,104 -26,140 -6,36 -15,84 -20,108 -13,55 -13,250 0,321 6,31 15,83 20,116 24,134 51,248 70,290 34,76 50,115 50,123 0,5 11,29 24,53 74,140 99,185 105,189 3,3 21,28 40,55 113,165 343,375 501,458 25,13 65,38 90,55 46,32 67,36 63,11 z m -5890,-44 c 110,-72 180,-121 224,-160 25,-22 51,-43 58,-47 17,-10 113,-111 169,-178 54,-63 54,-63 86,-110 14,-19 28,-37 31,-40 16,-13 139,-250 139,-268 0,-7 6,-23 14,-35 30,-46 70,-191 103,-367 19,-102 22,-383 5,-480 -17,-92 -42,-210 -53,-246 -5,-17 -9,-41 -9,-53 0,-35 -30,-22 -44,19 -24,69 -104,169 -191,237 -59,46 -128,80 -230,114 -75,25 -105,30 -185,30 -52,0 -120,-7 -150,-15 -56,-15 -70,-13 -70,6 0,44 -73,138 -106,138 -8,0 -14,4 -14,9 0,6 -19,11 -42,13 -41,3 -43,4 -45,38 -1,23 -9,40 -22,48 -15,11 -19,21 -14,43 4,23 0,34 -26,58 -25,23 -31,37 -31,70 0,28 -5,44 -15,47 -21,8 -19,41 4,70 37,48 34,162 -6,195 -24,21 -14,44 32,69 25,14 81,62 125,107 64,67 88,101 125,180 76,159 76,159 76,335 1,100 -3,125 -20,160 -34,69 -11,73 82,13 z m -217,-27 c -52,-73 -230,-228 -264,-228 -5,0 -15,-6 -21,-14 -7,-8 -27,-18 -44,-22 -18,-3 -36,-10 -42,-14 -5,-5 -26,-11 -46,-15 -35,-6 -36,-5 -43,27 -4,18 -10,77 -13,131 l -6,97 84,1 c 104,1 258,26 300,49 9,5 33,12 53,15 20,4 39,12 43,19 5,7 9,5 11,-6 2,-10 -4,-28 -12,-40 z m 92,27 c 18,-39 15,-261 -4,-337 -26,-104 -98,-237 -166,-307 -81,-83 -145,-134 -158,-126 -5,3 -10,15 -10,26 0,28 -93,119 -122,119 -37,0 -49,14 -54,61 -3,24 -12,68 -21,97 -21,74 -12,102 32,102 109,0 297,119 413,263 22,27 44,70 56,110 8,24 21,21 34,-8 z m 6166,-10 c 15,-8 44,-17 65,-21 20,-4 41,-10 46,-14 14,-10 189,-40 250,-43 44,-2 50,-4 46,-22 -2,-11 -6,-69 -10,-130 -5,-89 -9,-110 -22,-113 -14,-3 -167,63 -179,77 -3,3 -25,19 -49,36 -49,33 -115,98 -170,165 -20,25 -42,49 -48,53 -7,4 -13,15 -13,24 0,17 33,12 84,-12 z m -88,-47 c 3,-12 12,-28 18,-34 6,-7 26,-34 45,-61 19,-26 54,-64 78,-83 24,-19 49,-40 56,-45 65,-54 189,-115 231,-115 30,0 37,-26 26,-96 -19,-123 -18,-122 -67,-146 -48,-24 -78,-58 -88,-100 -12,-48 -37,-45 -96,13 -9,9 -28,24 -41,35 -57,46 -178,233 -178,276 0,7 -7,27 -16,43 -18,33 -33,280 -20,329 5,22 9,25 26,16 10,-5 22,-20 26,-32 z M 1086,4125 c 17,-13 42,-41 55,-61 l 23,-37 -30,-23 c -55,-45 -72,-31 -92,76 -14,78 -8,85 44,45 z m 6943,-13 c -1,-32 -36,-126 -48,-130 -20,-7 -41,19 -41,52 0,23 10,43 35,70 34,37 56,41 54,8 z M 1165,3954 c 21,-8 55,-76 55,-109 0,-33 -34,-101 -55,-109 -21,-8 -35,1 -35,22 0,21 -34,129 -43,138 -17,18 -5,42 26,52 17,5 33,10 34,11 1,1 9,-2 18,-5 z m 6806,-16 c 5,-8 -36,-186 -45,-195 -12,-12 -38,15 -47,50 -15,55 -6,113 22,143 22,24 55,25 70,2 z M 1206,3654 c 8,-11 10,-25 5,-33 -12,-18 -51,3 -51,28 0,36 24,39 46,5 z m 6688,-8 c -15,-48 -44,-57 -44,-12 0,27 18,46 37,39 9,-3 11,-13 7,-27 z M 1252,3535 c 8,-19 8,-28 -2,-40 -15,-18 -25,-11 -34,26 -10,44 17,55 36,14 z m 6593,14 c 10,-16 -4,-59 -19,-59 -26,0 -37,25 -20,48 17,24 29,28 39,11 z M 1291,3440 c 19,-11 27,-54 10,-64 -13,-9 -54,41 -48,58 7,19 12,19 38,6 z m 6509,-18 c 0,-28 -23,-53 -39,-43 -21,13 -6,61 19,61 13,0 20,-7 20,-18 z M 1413,3316 c 49,-21 79,-59 81,-103 1,-33 -2,-38 -24,-41 -14,-2 -32,-10 -41,-18 -14,-12 -18,-12 -32,3 -8,10 -21,29 -27,43 -14,33 -33,64 -48,83 -33,40 25,61 91,33 z m 6321,-33 c -4,-15 -17,-41 -29,-59 -12,-18 -28,-46 -35,-63 -13,-33 -36,-39 -71,-21 -50,27 0,134 73,157 58,19 69,16 62,-14 z M 1932,3152 c 7,-7 19,-12 27,-12 30,0 161,-73 223,-124 35,-29 83,-79 107,-112 25,-32 51,-64 59,-70 41,-31 -29,-35 -85,-6 -28,15 -235,16 -282,1 -118,-38 -162,-56 -215,-91 -32,-21 -63,-38 -70,-37 -6,0 -36,38 -66,84 -30,47 -58,85 -62,85 -14,0 -8,27 17,74 32,59 31,94 0,157 -14,27 -23,55 -19,61 10,15 350,6 366,-10 z m -402,-48 c 23,-37 31,-127 13,-145 -10,-10 -43,-2 -43,11 0,4 -16,31 -35,60 -19,29 -35,57 -35,64 0,11 52,43 72,45 3,1 16,-15 28,-35 z m 5958,30 c 25,-7 29,-36 7,-54 -23,-19 -28,-89 -10,-143 l 16,-49 -57,-84 c -76,-111 -77,-112 -116,-82 -44,34 -113,68 -136,68 -10,0 -22,4 -27,9 -14,13 -108,32 -194,38 -70,5 -110,-2 -223,-37 -35,-10 -35,-6 -1,39 60,80 230,231 259,231 4,0 20,6 37,14 38,16 114,43 142,49 31,7 277,8 303,1 z m 124,-48 c 11,-16 10,-21 -11,-47 -10,-13 -21,-34 -25,-45 -4,-12 -15,-29 -26,-39 -18,-17 -19,-16 -26,9 -16,64 22,152 60,140 11,-4 24,-12 28,-18 z M 6185,2849 c 55,-6 156,-22 225,-36 69,-13 139,-27 155,-30 54,-8 59,-11 44,-29 -7,-8 -35,-26 -63,-40 -49,-24 -135,-100 -195,-173 -27,-32 -72,-114 -104,-191 -43,-100 -57,-254 -33,-359 19,-84 15,-95 -42,-105 -53,-8 -117,-81 -124,-141 -2,-23 -10,-31 -34,-37 -17,-4 -39,-17 -49,-28 -12,-13 -25,-18 -41,-14 -18,5 -30,-1 -51,-25 -22,-25 -35,-31 -66,-31 -28,0 -44,-6 -57,-22 l -18,-22 -40,28 c -53,37 -133,39 -187,6 -20,-12 -37,-21 -39,-19 -1,2 -15,26 -30,52 -33,57 -133,161 -197,205 -25,17 -73,43 -105,57 -32,14 -66,30 -75,35 -28,15 -178,40 -242,40 -67,0 -181,-25 -212,-46 -23,-16 -45,-18 -45,-4 0,11 64,110 152,234 54,76 234,271 278,301 8,6 35,26 60,46 184,148 468,277 700,318 227,40 298,45 435,30 z m -2875,-30 c 101,-19 198,-44 230,-60 8,-4 38,-15 65,-24 109,-37 353,-173 435,-244 96,-81 172,-154 215,-205 84,-100 234,-315 251,-359 8,-23 -28,-23 -63,1 -39,25 -276,25 -348,-1 -209,-73 -364,-192 -433,-331 -26,-52 -36,-55 -70,-23 -20,18 -35,22 -92,22 -57,0 -72,-4 -92,-22 -31,-29 -34,-29 -69,7 -24,24 -34,28 -49,20 -30,-16 -46,-12 -60,15 -11,21 -21,25 -58,25 -35,0 -48,5 -64,25 -15,20 -28,25 -52,23 -31,-3 -31,-2 -34,45 -3,42 -9,55 -51,98 -35,37 -55,49 -77,49 -49,0 -57,10 -43,61 20,74 22,237 4,325 -24,120 -92,248 -179,337 -65,66 -177,147 -205,147 -6,0 -11,6 -11,14 0,9 15,16 38,19 20,3 82,15 137,26 205,44 470,48 675,10 z m -986,-50 c 5,-5 -32,-27 -85,-52 -99,-47 -226,-136 -294,-205 -22,-23 -44,-42 -50,-42 -10,0 -165,173 -165,184 0,27 227,117 320,126 78,8 261,1 274,-11 z m 4731,1 c 113,-24 240,-75 264,-104 11,-13 3,-27 -49,-87 -33,-39 -68,-82 -77,-95 -8,-13 -20,-24 -27,-24 -6,0 -46,34 -89,75 -85,81 -153,130 -250,179 -64,33 -80,51 -50,59 32,8 237,6 278,-3 z m -276,-79 c 20,-15 56,-40 81,-54 52,-30 238,-184 254,-209 9,-15 1,-28 -49,-78 -33,-33 -64,-60 -70,-60 -7,0 -25,16 -41,36 -16,20 -41,51 -55,68 -31,37 -159,225 -159,233 0,3 -11,21 -25,39 -14,18 -25,42 -25,53 0,18 3,19 26,10 15,-5 43,-22 63,-38 z m -4409,19 c 0,-11 -9,-28 -20,-37 -11,-10 -20,-21 -20,-24 0,-6 -43,-76 -82,-132 -40,-58 -160,-198 -180,-211 -14,-9 -27,0 -78,53 -33,35 -60,66 -60,70 0,21 330,261 358,261 5,0 17,9 27,20 24,26 55,26 55,0 z m 139,-27 c 99,-80 163,-150 209,-227 76,-131 84,-164 88,-368 1,-98 -2,-180 -6,-183 -5,-3 -31,6 -57,20 -58,30 -96,32 -146,5 -57,-31 -58,-31 -191,73 -16,12 -37,25 -48,29 -25,10 -35,38 -17,52 29,22 88,127 89,157 0,8 4,19 9,25 15,17 39,148 41,222 1,68 -16,149 -41,194 -27,50 8,50 70,1 z m 4131,29 c 0,-5 -12,-37 -26,-73 -23,-55 -26,-79 -27,-179 0,-105 3,-123 33,-210 18,-52 46,-115 62,-141 15,-25 28,-52 28,-60 0,-8 -26,-31 -58,-52 -32,-21 -71,-49 -87,-63 -35,-30 -36,-30 -82,2 -33,22 -45,25 -88,19 -27,-3 -64,-15 -82,-26 -18,-11 -36,-18 -41,-15 -4,3 -7,76 -7,163 2,169 12,217 63,312 13,25 33,62 43,81 19,35 121,146 169,185 84,67 100,76 100,57 z M 2418,2493 c -3,-97 -9,-158 -16,-165 -7,-7 -12,-19 -12,-28 0,-8 -6,-27 -14,-41 -7,-14 -16,-38 -20,-53 -7,-29 -49,-100 -64,-110 -4,-2 -28,13 -53,35 -24,22 -65,56 -91,77 -26,20 -47,41 -48,46 0,5 30,41 68,80 72,76 144,178 188,266 58,118 68,101 62,-107 z m 4292,95 c 33,-71 81,-150 107,-176 7,-7 13,-17 13,-21 0,-4 27,-36 60,-69 33,-34 60,-66 60,-71 0,-5 -19,-25 -42,-46 -24,-20 -59,-52 -79,-70 -70,-64 -73,-63 -108,12 -17,36 -34,78 -38,92 -3,14 -9,31 -14,36 -28,36 -32,385 -5,385 7,0 27,-33 46,-72 z M 4994,1890 c 5,-5 17,-10 24,-10 27,0 167,-73 224,-116 68,-53 173,-169 173,-192 0,-11 -9,-18 -25,-20 -62,-8 -158,-111 -144,-154 4,-13 -3,-21 -23,-29 -40,-16 -197,-38 -206,-30 -4,4 -15,36 -24,72 -18,72 -72,188 -112,237 -82,102 -205,202 -249,202 -47,0 -29,46 21,53 56,9 330,-2 341,-13 z m 1460,14 c 29,-11 16,-39 -32,-67 -26,-15 -55,-33 -65,-40 -15,-10 -21,-8 -37,13 -11,14 -20,33 -20,42 0,35 105,71 154,52 z m -3731,-23 c 54,-23 60,-37 34,-73 -22,-30 -30,-28 -93,14 -23,15 -47,28 -53,28 -17,0 -13,21 7,36 24,19 53,17 105,-5 z m 1696,5 c 47,-13 67,-36 33,-36 -28,0 -129,-77 -185,-140 -60,-70 -123,-194 -148,-295 -11,-44 -24,-84 -28,-88 -6,-6 -22,-5 -40,1 -17,6 -63,14 -103,18 -77,7 -118,30 -118,65 0,33 -55,83 -104,97 -63,16 -62,21 19,122 66,83 188,175 273,206 26,10 52,21 57,25 6,5 31,11 55,15 25,4 52,10 60,15 24,13 180,10 229,-5 z m 1838,-53 c 3,-10 13,-26 21,-35 21,-25 10,-43 -45,-71 -26,-13 -62,-32 -79,-42 -58,-34 -79,-3 -48,71 30,72 134,125 151,77 z m -3364,-5 c 55,-31 87,-81 87,-134 0,-34 -26,-31 -115,14 -80,40 -94,55 -72,81 8,9 17,24 20,34 7,20 47,23 80,5 z m 1666,-40 c 29,-115 31,-130 60,-388 5,-47 5,-80 -2,-87 -6,-9 -38,-13 -94,-13 -69,0 -85,3 -90,17 -10,26 34,354 50,369 4,4 7,16 7,27 0,33 33,127 44,127 6,0 17,-24 25,-52 z m 117,-13 c 73,-59 142,-133 181,-194 60,-94 115,-234 97,-250 -10,-9 -264,-31 -276,-24 -5,2 -8,51 -8,107 0,146 -39,331 -79,380 -16,20 -6,37 18,28 10,-4 40,-25 67,-47 z m -203,38 c 4,-3 3,-11 -2,-17 -7,-10 -30,-75 -62,-181 -5,-16 -15,-88 -21,-160 -6,-71 -15,-134 -20,-140 -8,-9 -157,-9 -190,1 -31,9 -19,71 40,217 23,56 97,153 165,220 71,68 78,72 90,60 z m 1582,-153 c 10,-16 -14,-50 -36,-50 -28,0 -37,30 -14,46 22,16 41,18 50,4 z m -2977,-22 c 19,-19 14,-28 -18,-28 -41,0 -40,33 1,39 3,1 10,-4 17,-11 z m 2856,-24 c 25,-9 19,-33 -10,-40 -36,-9 -56,12 -30,32 23,16 20,16 40,8 z m -2734,-26 c 24,-26 12,-43 -24,-34 -16,4 -26,13 -26,25 0,36 20,40 50,9 z m 2467,-33 c 38,-19 59,-43 47,-54 -5,-4 -36,-16 -69,-26 -33,-11 -64,-23 -69,-27 -25,-21 -53,-8 -65,30 -7,20 -15,42 -17,49 -15,35 116,56 173,28 z m 163,-10 c 0,-20 -5,-25 -23,-25 -31,0 -38,9 -26,31 15,29 49,25 49,-6 z m -2510,0 c 20,-24 -4,-47 -36,-33 -23,11 -31,28 -17,41 11,12 40,8 53,-8 z m 247,-12 c 43,-20 49,-34 32,-73 -16,-34 -46,-39 -93,-15 -15,8 -39,15 -51,15 -13,0 -33,9 -46,20 l -24,20 25,19 c 42,34 105,39 157,14 z m 1894,-45 c 40,-45 23,-71 -56,-85 -33,-6 -70,-14 -82,-18 -20,-6 -23,-4 -23,18 0,32 36,72 81,91 46,21 59,20 80,-6 z m -1747,-27 c 45,-20 83,-62 72,-80 -4,-6 -19,-6 -39,-1 -17,5 -51,14 -74,20 -46,12 -52,23 -27,58 18,27 12,26 68,3 z"
       id="path35"
       style="stroke-width:3.92954" />
    <path
       d="m 4170,7100 c -31,-19 -10,-184 36,-287 8,-17 14,-35 14,-40 0,-41 70,-135 174,-236 l 81,-79 -30,-21 c -81,-59 -201,-197 -253,-293 l -37,-69 v -136 -136 l 43,-56 c 23,-31 42,-61 42,-67 0,-11 -30,-61 -42,-70 -17,-13 -36,-102 -37,-182 -2,-84 -1,-89 32,-141 59,-92 195,-206 276,-232 11,-3 21,-10 21,-15 0,-5 10,-12 22,-16 57,-18 298,-187 298,-209 0,-7 -17,-24 -37,-36 -39,-24 -42,-26 -82,-59 -13,-11 -28,-20 -33,-20 -6,0 -40,-20 -77,-45 -37,-25 -70,-45 -74,-45 -8,0 -110,-61 -117,-71 -3,-3 -16,-10 -29,-14 -37,-11 -121,-65 -163,-104 -38,-34 -38,-35 -38,-110 1,-64 4,-80 23,-101 23,-27 66,-50 93,-50 13,0 66,-41 157,-122 25,-22 17,-33 -51,-64 -31,-15 -67,-31 -79,-37 -41,-19 -27,-40 48,-76 96,-45 133,-48 189,-17 25,14 63,34 86,44 76,37 244,184 309,272 43,59 95,156 95,178 0,9 7,30 15,46 11,21 15,62 15,151 0,89 -4,130 -15,151 -8,16 -15,37 -15,46 0,9 -4,20 -10,23 -15,9 -12,48 5,81 8,16 15,37 15,46 0,9 5,20 10,23 13,8 13,245 1,245 -5,0 -13,15 -17,33 -15,72 -97,168 -204,242 -30,21 -69,49 -86,62 -17,12 -36,23 -42,23 -6,0 -17,6 -24,13 -7,7 -52,36 -99,65 -81,48 -117,77 -108,86 12,12 163,108 219,140 36,20 72,41 80,46 8,5 49,30 91,55 90,53 168,127 176,167 3,16 10,31 14,34 16,10 10,153 -7,180 -19,29 -136,101 -187,115 -19,5 -38,17 -41,26 -8,20 -17,13 85,61 62,30 98,54 128,89 42,46 43,49 39,108 -5,87 -33,110 -182,156 -53,16 -80,19 -115,13 -61,-11 -162,-6 -236,11 -33,8 -96,17 -140,20 -103,9 -141,24 -148,61 -3,16 -10,53 -16,81 -14,75 -25,86 -61,63 z m 80,-236 c 0,-8 7,-17 15,-20 8,-4 15,-12 15,-19 0,-39 157,-223 236,-277 38,-26 43,-44 14,-53 -54,-17 -280,244 -280,325 0,11 -4,20 -9,20 -12,0 -23,29 -15,41 7,13 24,1 24,-17 z m 188,-10 c 44,-12 21,-24 -47,-24 -74,0 -104,7 -95,21 6,10 107,12 142,3 z m 229,-30 c 44,-12 11,-24 -67,-24 -81,0 -110,6 -110,21 0,10 142,12 177,3 z m 227,-33 c 107,-36 126,-51 126,-103 0,-31 -7,-45 -39,-77 -21,-21 -51,-45 -67,-53 -267,-139 -401,-217 -424,-248 -3,-3 -27,-24 -55,-46 -115,-90 -185,-160 -185,-185 0,-9 -7,-22 -15,-29 -11,-9 -15,-34 -15,-96 0,-84 0,-85 45,-146 49,-67 52,-83 15,-83 -18,0 -30,13 -56,60 -31,56 -33,66 -34,160 0,69 4,107 14,120 7,11 16,32 20,48 3,15 11,27 16,27 6,0 10,5 10,11 0,33 218,259 293,305 107,64 143,86 172,100 178,93 184,99 135,149 -18,19 -43,38 -54,41 -12,4 -31,14 -44,22 -21,14 -22,16 -6,33 23,26 46,24 148,-10 z m -459,-10 c 22,-6 85,-11 140,-11 115,0 135,-7 103,-34 -15,-13 -46,-21 -96,-26 -40,-4 -79,-13 -85,-19 -6,-6 -25,-11 -43,-11 -27,0 -38,9 -72,54 -23,29 -38,57 -34,61 7,6 12,6 87,-14 z m 373,-91 c 4,-23 -52,-40 -145,-43 -46,-2 -88,-9 -96,-16 -18,-14 -102,-11 -102,4 0,5 18,13 40,17 22,5 44,13 49,18 6,6 31,10 56,10 26,0 55,7 66,15 26,20 128,16 132,-5 z m -78,-77 c 0,-5 -31,-23 -68,-41 -60,-30 -70,-32 -95,-21 -39,18 -33,33 21,51 49,17 142,23 142,11 z m 137,-253 c 109,-56 153,-98 153,-145 0,-35 -23,-113 -42,-144 -16,-27 -102,-93 -160,-124 -24,-13 -61,-35 -83,-50 -22,-15 -44,-27 -48,-27 -12,0 -196,-122 -222,-147 -11,-11 -28,-24 -37,-29 -22,-13 -105,-82 -151,-126 -45,-43 -57,-47 -57,-18 0,60 176,236 356,358 64,43 128,83 188,117 38,22 89,52 115,67 46,26 111,89 111,107 0,22 -61,64 -167,116 -114,56 -129,67 -118,85 13,21 68,8 162,-40 z m -182,-19 c 6,-11 151,-81 166,-81 5,0 24,-10 42,-22 18,-13 34,-24 36,-25 4,-3 -14,-44 -26,-62 -8,-12 -85,-10 -122,4 -32,11 -86,15 -207,15 -151,0 -191,6 -170,28 8,7 216,3 320,-7 74,-7 126,1 126,20 0,11 -101,19 -237,19 -75,0 -133,4 -133,9 0,9 24,30 70,61 12,8 32,23 44,32 23,19 81,24 91,9 z m -68,-217 c 170,-7 208,-13 188,-33 -17,-17 -183,-41 -289,-41 -55,-1 -121,-5 -146,-11 -78,-18 -85,-17 -88,12 -2,20 6,34 34,59 34,29 42,32 83,26 25,-3 123,-8 218,-12 z m 41,-116 c -6,-16 -248,-24 -248,-9 0,13 37,18 153,20 75,1 98,-2 95,-11 z m -278,-18 c 22,-14 7,-21 -58,-27 -58,-5 -81,4 -67,27 8,13 105,13 125,0 z m 175,-40 c 3,-6 -2,-13 -12,-17 -10,-4 -29,-17 -43,-30 -14,-13 -43,-28 -65,-34 -22,-6 -44,-14 -50,-17 -5,-3 -29,-7 -54,-9 -34,-2 -47,2 -62,20 -10,12 -18,31 -16,42 2,18 12,21 107,26 58,4 116,12 130,17 33,14 57,15 65,2 z m -185,-149 c 0,-13 -37,-24 -50,-16 -6,4 -8,11 -5,16 8,12 55,12 55,0 z m 115,-203 c 24,-18 87,-60 141,-93 140,-87 287,-197 315,-236 79,-111 81,-179 2,-82 -63,79 -180,177 -242,203 -13,6 -38,21 -55,33 -37,26 -51,35 -104,64 -22,13 -61,36 -85,53 -25,16 -50,30 -55,30 -13,0 -25,36 -17,50 12,20 57,10 100,-22 z m -100,-54 c 9,-14 14,-28 11,-31 -9,-9 -96,21 -96,33 0,34 62,33 85,-2 z m -75,-43 c 0,-25 35,-33 103,-25 37,4 57,3 62,-5 4,-7 5,-13 4,-15 -2,-1 -44,1 -94,4 -49,3 -94,3 -99,-2 -17,-14 -26,-9 -26,17 0,13 8,29 18,34 25,15 32,13 32,-8 z m 300,-98 c 11,-13 26,-23 32,-23 6,0 8,-3 5,-7 -4,-3 -88,-8 -187,-10 -169,-3 -181,-2 -199,16 -12,12 -18,27 -14,36 5,14 28,16 174,13 159,-3 169,-4 189,-25 z m -390,-28 c 0,-20 186,-155 290,-211 19,-11 51,-31 71,-46 20,-16 39,-28 42,-28 6,0 30,-18 61,-45 6,-6 22,-18 36,-27 63,-39 162,-136 157,-152 -6,-19 -38,-19 -56,1 -30,31 -74,66 -126,101 -82,56 -294,182 -305,182 -15,0 -170,156 -170,171 0,7 -7,20 -16,30 -9,10 -14,25 -10,34 7,18 26,11 26,-10 z m 509,-54 c 26,-16 -7,-20 -186,-22 -174,-2 -203,1 -203,22 0,11 370,12 389,0 z m 64,-42 c 31,-16 67,-51 62,-59 -8,-12 -340,-1 -381,13 -56,20 -55,37 3,38 65,2 287,15 291,17 2,1 13,-3 25,-9 z m 119,-105 c 27,-17 -21,-24 -161,-24 -120,0 -161,3 -170,13 -6,8 -8,17 -4,20 7,8 322,-1 335,-9 z m 35,-60 c 22,-6 48,-58 37,-75 -8,-14 -96,-10 -124,6 -14,8 -44,14 -68,15 -48,0 -136,35 -127,50 7,11 245,14 282,4 z m -99,-101 c 2,-9 -7,-13 -27,-13 -30,0 -46,11 -34,24 11,11 56,2 61,-11 z m 182,-38 c -1,-11 -7,-29 -15,-39 -8,-11 -15,-27 -15,-37 0,-66 -110,-198 -248,-296 -17,-13 -34,-23 -37,-23 -3,0 -19,-12 -35,-27 -31,-27 -83,-61 -130,-85 -14,-7 -27,-16 -30,-20 -3,-4 -28,-17 -55,-30 -28,-13 -63,-32 -80,-44 -16,-11 -52,-31 -78,-44 -63,-31 -61,-56 3,-52 109,8 125,7 125,-7 0,-8 -20,-25 -45,-38 -36,-20 -56,-24 -98,-20 -29,2 -58,9 -65,16 -6,6 -12,40 -12,76 0,77 12,93 120,151 157,84 181,98 220,123 22,14 55,33 72,43 69,38 229,163 291,228 18,19 48,64 65,101 30,64 47,72 47,24 z m -67,18 c 17,-10 -7,-23 -43,-23 -21,0 -42,-4 -45,-10 -3,-5 3,-10 14,-10 51,0 72,-34 26,-42 -29,-6 -43,7 -51,51 -5,23 -3,36 7,42 13,8 73,3 92,-8 z m 35,-295 c 4,-35 -10,-36 -32,-3 -21,32 -20,37 7,33 16,-2 23,-11 25,-30 z m -58,-16 c 0,-14 -23,-32 -42,-32 -17,0 -17,1 0,19 17,20 42,27 42,13 z m 37,-73 c 19,-36 16,-87 -4,-97 -24,-13 -293,-25 -293,-14 0,11 113,82 132,82 7,0 22,7 32,15 11,8 29,15 41,15 12,0 30,7 41,15 24,18 36,15 51,-16 z m 34,-187 c -6,-2 -11,-16 -11,-32 0,-16 -7,-41 -14,-57 -8,-15 -17,-35 -20,-43 -20,-55 -142,-194 -226,-258 -19,-15 -44,-35 -55,-45 -11,-10 -36,-27 -55,-37 -19,-10 -61,-32 -93,-49 -60,-32 -86,-38 -102,-22 -6,5 -21,11 -34,13 -39,5 -35,24 11,48 305,157 492,295 529,388 5,12 13,22 19,22 5,0 10,11 10,24 0,13 6,29 14,35 7,6 17,26 21,44 l 8,32 5,-30 c 2,-16 -1,-31 -7,-33 z m -46,28 c 0,-12 -24,-16 -135,-21 -74,-3 -163,-11 -196,-19 -34,-7 -70,-10 -80,-6 -15,6 -13,10 17,28 30,19 54,23 194,28 198,8 200,8 200,-10 z m -25,-61 c 0,-10 -20,-35 -77,-95 -23,-25 -18,-25 -182,2 -46,8 -126,14 -177,14 -75,0 -94,3 -94,14 0,36 29,46 133,48 56,1 112,1 125,0 13,0 63,5 110,13 110,17 162,18 162,4 z m -310,-124 c 14,-8 52,-15 85,-15 33,0 65,-4 72,-8 18,-11 -1,-34 -28,-33 -66,2 -160,18 -171,29 -6,6 -31,12 -54,12 -41,0 -61,10 -47,24 12,12 118,5 143,-9 z m -84,-60 c 27,-8 77,-15 112,-15 34,0 62,-3 62,-7 0,-10 -42,-53 -52,-53 -5,0 -26,-11 -48,-25 -22,-14 -44,-25 -50,-25 -11,0 -130,95 -142,113 -19,30 39,36 118,12 z m -133,-47 c 19,-18 51,-47 71,-65 39,-34 46,-53 18,-53 -19,0 -152,122 -152,140 0,20 29,10 63,-22 z"
       id="path37"
       style="stroke-width:3.92954" />
    <path
       d="m 3113,5778 c -4,-7 -8,-87 -8,-177 v -165 l -120,-67 c -66,-37 -136,-78 -155,-91 -19,-13 -55,-33 -80,-46 -25,-13 -59,-34 -76,-48 l -32,-23 -33,22 c -19,13 -54,33 -79,46 -25,13 -71,41 -104,62 -76,51 -113,52 -100,3 3,-12 27,-30 57,-44 29,-13 54,-27 57,-31 3,-4 37,-23 75,-44 39,-20 74,-40 78,-45 6,-5 11,-371 7,-556 0,-6 -19,-20 -42,-33 -24,-12 -70,-38 -103,-57 -33,-19 -73,-40 -88,-47 -28,-12 -45,-46 -32,-67 7,-12 41,-4 62,14 23,20 39,31 84,55 24,13 63,37 87,52 50,34 92,37 117,9 10,-11 22,-20 26,-20 4,0 53,-27 107,-60 55,-33 102,-60 106,-60 3,0 39,-20 79,-45 41,-25 80,-45 86,-45 19,0 24,-50 19,-194 -3,-78 -4,-147 -1,-153 6,-18 38,-16 53,2 9,11 11,55 8,170 -3,85 -2,159 2,165 4,6 18,17 31,24 118,63 168,92 194,110 17,12 50,33 75,45 25,13 64,36 87,51 66,45 77,46 136,7 29,-19 72,-45 97,-58 25,-12 62,-36 82,-52 45,-34 73,-33 73,3 0,19 -10,30 -40,47 -22,12 -51,28 -65,36 -14,7 -52,28 -85,46 -105,57 -97,32 -98,330 0,273 1,283 45,297 12,3 60,30 107,58 47,28 98,57 114,64 19,8 27,19 27,37 0,37 -36,33 -106,-14 -33,-22 -81,-51 -109,-64 -27,-14 -60,-35 -72,-46 -29,-27 -35,-27 -85,9 -22,17 -47,30 -55,30 -7,0 -13,4 -13,9 0,5 -10,13 -22,16 -13,4 -36,17 -53,29 -16,13 -43,29 -60,38 -16,8 -71,38 -121,67 l -91,52 5,166 c 4,153 3,167 -13,180 -23,16 -32,16 -42,1 z m 42,-402 c 11,-7 43,-26 70,-41 111,-62 143,-80 226,-130 47,-29 95,-56 107,-59 43,-14 45,-24 44,-296 -1,-143 -5,-266 -9,-273 -8,-13 -107,-77 -119,-77 -4,0 -51,-27 -106,-60 -54,-33 -103,-60 -108,-60 -5,0 -15,-6 -22,-13 -27,-26 -86,-57 -109,-57 -14,0 -47,15 -75,33 -64,40 -85,53 -137,80 -23,11 -44,24 -47,28 -3,4 -34,23 -70,42 -119,64 -131,72 -136,92 -2,11 -3,137 -2,280 l 3,259 75,42 c 41,23 143,82 225,132 83,50 155,91 160,91 6,1 19,-5 30,-13 z"
       id="path39"
       style="stroke-width:3.92954" />
    <path
       d="m 3027,5219 c -33,-8 -61,-22 -106,-54 -39,-27 -111,-107 -124,-136 -41,-93 -62,-228 -38,-243 4,-3 11,-23 14,-44 10,-57 34,-99 91,-156 69,-70 188,-126 269,-126 86,0 213,61 286,138 71,76 85,118 86,253 0,70 -4,121 -11,130 -6,8 -14,25 -17,39 -8,31 -88,117 -144,154 -78,52 -201,70 -306,45 z m 231,-65 c 15,-8 32,-14 37,-14 15,-1 102,-86 119,-118 51,-90 60,-194 27,-292 -25,-71 -90,-138 -174,-179 -149,-72 -324,-15 -417,137 -33,54 -35,61 -35,152 0,83 3,102 27,152 27,57 36,69 96,121 32,27 91,52 147,60 46,7 144,-4 173,-19 z"
       id="path41"
       style="stroke-width:3.92954" />
    <path
       d="m 5750,5570 c -74,-10 -180,-32 -195,-41 -5,-4 -44,-17 -85,-29 -190,-58 -303,-191 -243,-288 39,-64 182,-162 235,-162 10,0 18,-4 18,-10 0,-5 12,-10 27,-10 41,0 106,-36 130,-72 28,-43 71,-171 79,-234 3,-27 12,-66 20,-87 8,-20 14,-58 14,-83 0,-25 5,-64 10,-87 6,-23 14,-91 20,-152 9,-114 23,-191 34,-202 4,-4 21,-2 38,5 22,8 35,8 44,1 25,-20 34,2 34,82 0,61 3,79 14,79 21,0 28,-28 20,-86 -3,-30 -2,-60 4,-71 15,-26 21,-5 24,82 3,65 5,70 27,73 35,5 40,-7 30,-77 -11,-77 -2,-93 50,-89 l 36,3 6,65 c 4,36 12,97 18,135 6,39 11,98 11,133 0,34 7,79 15,99 8,19 15,47 15,60 0,14 6,37 14,51 8,15 22,52 32,82 26,86 103,239 127,254 12,7 45,19 72,26 28,7 64,18 82,26 17,8 36,14 42,14 15,0 110,59 144,89 41,37 67,84 67,122 0,50 -50,121 -112,162 -52,35 -149,77 -176,77 -8,0 -28,6 -45,13 -90,39 -170,49 -402,52 -126,2 -259,-1 -295,-5 z m 210,-45 c 0,-11 -12,-15 -45,-15 -26,0 -60,-7 -76,-16 -36,-18 -59,-13 -59,14 0,29 8,32 97,32 67,0 83,-3 83,-15 z m 247,0 c 2,-6 -3,-20 -11,-30 -14,-19 -16,-19 -44,-2 -20,11 -51,17 -90,17 -57,0 -87,12 -60,24 23,9 201,1 205,-9 z m 200,-33 c 12,-7 33,-12 47,-12 32,0 43,-18 23,-37 -13,-13 -20,-13 -53,-2 -22,7 -44,17 -50,21 -7,5 -35,11 -63,15 -45,5 -62,18 -46,34 8,8 119,-7 142,-19 z m -669,1 c 2,-9 -7,-13 -29,-13 -19,0 -68,-12 -111,-27 -77,-26 -78,-27 -92,-8 -17,23 -6,34 34,35 14,1 39,7 55,15 37,17 137,15 143,-2 z m 217,-69 v -39 l -63,-9 c -34,-5 -65,-6 -69,-3 -3,4 -6,23 -7,44 l -1,38 60,6 c 81,7 80,8 80,-37 z m 163,36 c 49,0 52,-1 52,-26 0,-56 -14,-65 -93,-58 -40,4 -75,12 -79,18 -22,33 10,82 46,72 12,-3 45,-6 74,-6 z m -360,-18 c 7,-5 15,-24 18,-43 6,-34 5,-35 -43,-52 -67,-24 -80,-22 -123,20 -43,40 -43,53 -2,53 15,0 45,7 67,15 46,16 65,18 83,7 z m 574,-10 c 37,-10 70,-21 73,-24 11,-10 -68,-77 -90,-77 -11,0 -29,6 -39,14 -11,8 -32,15 -48,15 -22,0 -28,4 -28,23 0,30 27,67 48,67 9,0 47,-9 84,-18 z m -864,-4 c 18,-18 15,-26 -17,-43 -16,-8 -32,-23 -35,-32 -10,-33 -42,-45 -86,-33 -22,6 -40,15 -40,20 0,8 24,29 70,60 12,8 29,20 38,27 22,16 55,16 70,1 z m 1168,-30 c 64,-42 85,-78 45,-78 -10,0 -31,-2 -47,-5 -25,-5 -33,0 -58,35 -17,22 -35,40 -42,40 -20,0 -27,19 -14,35 20,24 48,17 116,-27 z m -1060,-50 35,-33 -43,-43 -44,-42 -42,31 c -50,37 -53,59 -9,93 42,34 60,33 103,-6 z m 943,5 c 20,-14 38,-28 39,-29 11,-8 -13,-44 -36,-53 -15,-6 -34,-16 -43,-22 -13,-10 -23,-5 -56,28 l -41,41 29,31 c 34,38 61,39 108,4 z m -559,-65 c 0,-54 -7,-63 -48,-71 -45,-9 -72,19 -72,73 v 40 h 60 60 z m 177,26 c 3,-9 2,-33 -3,-53 -8,-34 -12,-36 -52,-39 -63,-5 -89,16 -86,65 1,21 2,39 3,41 1,1 30,2 66,2 51,0 67,-4 72,-16 z m -332,-28 c 11,-57 4,-71 -36,-74 -33,-3 -39,1 -59,33 -25,40 -23,44 23,61 55,20 66,17 72,-20 z m 455,19 c 39,-14 40,-23 8,-66 -19,-25 -28,-29 -58,-27 -33,3 -35,5 -38,42 -2,21 -1,44 2,52 7,17 39,17 86,-1 z m -852,-60 c 29,-34 28,-53 -3,-60 -14,-3 -35,-7 -48,-10 -44,-9 -111,66 -84,94 21,22 108,6 135,-24 z m 986,14 c 33,-26 33,-54 2,-74 -31,-21 -92,-11 -99,15 -5,21 38,80 58,80 7,0 24,-9 39,-21 z m 336,-2 c 0,-13 -14,-38 -32,-55 -29,-30 -34,-32 -77,-26 -56,8 -61,11 -61,32 0,38 58,68 133,71 32,1 37,-2 37,-22 z m -1070,-1 c 0,-8 7,-16 15,-20 8,-3 15,-17 15,-30 0,-21 -6,-26 -35,-32 -25,-4 -43,-1 -60,10 -31,20 -32,42 -2,67 26,22 67,25 67,5 z m 300,-87 c 18,-33 -5,-61 -48,-57 -32,3 -37,7 -40,32 -4,33 7,43 49,44 19,0 33,-6 39,-19 z m 151,5 c 9,-11 9,-21 1,-39 -9,-20 -19,-25 -47,-25 -20,0 -45,5 -56,10 -24,13 -25,46 -1,59 25,14 90,11 103,-5 z m -281,-9 c 17,-21 5,-45 -24,-45 -23,0 -61,41 -49,54 12,12 61,6 73,-9 z m 394,0 c 8,-22 -29,-56 -51,-48 -26,9 -33,24 -22,45 12,22 64,24 73,3 z m -676,-16 c 12,-5 22,-11 22,-15 0,-15 -48,-43 -75,-43 -35,-1 -121,36 -111,47 12,12 100,30 121,24 11,-2 30,-8 43,-13 z m 746,5 c 10,-26 7,-34 -14,-34 -13,0 -20,7 -20,18 0,33 23,44 34,16 z m -578,-30 c -4,-12 -10,-14 -17,-7 -5,5 -7,17 -3,27 4,12 10,14 17,7 5,-5 7,-17 3,-27 z m 888,16 c 6,-6 -8,-17 -35,-29 -74,-33 -92,-34 -122,-10 -32,24 -31,40 4,51 30,9 141,0 153,-12 z m -899,-35 c 33,-8 75,-15 93,-15 39,0 55,-26 27,-46 -25,-18 -68,-18 -176,2 -94,17 -108,30 -67,58 27,19 46,19 123,1 z m 693,-1 c 47,-33 15,-57 -94,-72 -76,-10 -104,-1 -104,33 0,19 5,25 23,25 12,0 45,7 72,14 66,19 77,19 103,0 z m -239,-38 c 8,-5 11,-19 7,-36 -4,-22 -1,-29 16,-33 16,-5 19,-11 14,-29 -4,-13 -15,-57 -24,-98 -15,-64 -20,-75 -39,-78 -22,-3 -23,0 -23,55 0,33 4,63 8,69 4,5 14,26 21,48 11,32 11,40 0,47 -8,5 -71,9 -141,9 -72,0 -129,4 -133,10 -3,5 -2,18 4,27 8,16 25,18 143,18 73,0 139,-4 147,-9 z m -444,-76 c 8,-13 -20,-24 -41,-16 -20,8 -9,26 16,26 10,0 22,-5 25,-10 z m 102,2 c 7,-4 12,-16 12,-27 0,-11 4,-50 8,-86 10,-74 8,-89 -12,-89 -16,0 -45,87 -45,136 0,20 -6,37 -16,42 -9,5 -14,14 -10,21 8,13 45,15 63,3 z m 488,-1 c 7,-12 -31,-25 -45,-16 -6,4 -8,11 -5,16 8,12 42,12 50,0 z m -346,-26 c 2,-2 1,-11 -2,-20 -4,-9 -19,-15 -41,-15 -38,0 -51,12 -42,37 5,12 14,14 44,8 20,-4 39,-8 41,-10 z m 121,-9 c 0,-8 -5,-18 -10,-21 -8,-5 -8,-11 0,-20 6,-7 10,-37 8,-67 l -3,-53 h -40 -40 v 54 c 0,50 2,55 29,66 l 28,12 -32,11 c -41,15 -30,32 21,32 27,0 39,-4 39,-14 z m -332,-59 c 2,-22 10,-41 18,-44 26,-10 16,-35 -13,-31 -23,2 -29,9 -31,32 -2,16 -10,39 -18,51 -16,25 -9,37 21,33 15,-2 21,-12 23,-41 z m 535,36 c 4,-3 1,-13 -6,-22 -8,-9 -23,-37 -33,-63 -22,-55 -44,-63 -44,-16 0,48 31,107 56,108 11,0 24,-3 27,-7 z m -325,-81 3,-63 -38,3 -38,3 -7,55 c -3,30 -4,58 -1,63 3,4 21,7 41,5 l 37,-3 z m -168,-131 c 0,-15 5,-32 11,-38 13,-13 8,-108 -6,-108 -5,0 -11,24 -13,54 -2,30 -10,60 -18,68 -14,15 -19,55 -7,66 12,12 33,-15 33,-42 z m 80,-60 c 3,-51 2,-98 -1,-103 -15,-25 -29,7 -29,67 0,45 -4,66 -14,72 -8,4 -15,15 -16,23 -5,34 0,41 28,38 27,-3 27,-3 32,-97 z m 84,91 c 8,-13 10,-211 3,-219 -4,-3 -18,-1 -31,5 -23,10 -24,17 -28,109 -2,60 1,101 7,105 14,10 43,10 49,0 z m 103,0 c 9,-5 10,-34 5,-104 -8,-104 -20,-131 -50,-112 -23,15 -25,201 -2,215 19,10 32,11 47,1 z m 90,-52 c 8,-30 12,-68 10,-85 -3,-30 -7,-27 -23,22 -8,26 -24,-3 -24,-44 0,-33 -17,-54 -29,-34 -14,22 25,204 42,198 6,-2 16,-28 24,-57 z m 49,45 c 8,-20 -4,-65 -16,-65 -6,0 -10,18 -10,40 0,40 15,54 26,25 z m -352,-262 c 0,-13 -1,-48 -2,-79 -3,-76 -25,-68 -33,12 -3,32 -9,67 -14,77 -7,16 -4,18 21,15 23,-2 29,-8 28,-25 z m 270,19 c 7,-12 -5,-52 -15,-52 -13,0 -22,27 -15,45 6,16 22,20 30,7 z m -157,-15 c 11,-12 12,-160 1,-175 -20,-24 -38,7 -38,64 0,69 -18,70 -22,2 -5,-80 -23,-55 -24,32 0,41 1,77 2,80 3,8 72,5 81,-3 z m 91,1 c 12,-15 14,-149 3,-167 -10,-16 -66,-10 -65,7 1,6 2,45 3,86 1,75 2,77 42,85 4,0 11,-5 17,-11 z m -208,-197 c 0,-20 -13,-41 -21,-35 -15,9 -10,44 6,44 8,0 15,-4 15,-9 z m 60,-35 c 0,-38 -12,-86 -21,-86 -5,0 -9,25 -9,55 0,42 3,55 15,55 9,0 15,-9 15,-24 z"
       id="path43"
       style="stroke-width:3.92954" />
    <path
       d="m 3295,3570 c -4,-6 -7,-131 -7,-278 l -1,-267 h 84 84 l -2,75 c -2,41 -8,106 -13,144 -7,43 -7,73 -1,79 13,13 49,-1 56,-22 3,-11 20,-35 38,-54 18,-19 57,-63 87,-98 115,-134 110,-130 191,-127 l 71,3 v 269 c 0,214 -3,271 -14,276 -7,3 -46,4 -87,2 l -74,-4 7,-101 c 4,-56 12,-119 18,-139 6,-20 8,-44 5,-52 -10,-26 -45,-19 -61,12 -16,30 -34,52 -160,194 l -79,88 h -53 c -29,0 -59,3 -67,6 -8,3 -18,0 -22,-6 z"
       id="path45"
       style="stroke-width:3.92954" />
    <path
       d="m 4424,3571 c -56,-14 -96,-44 -115,-89 -23,-53 -23,-69 -4,-115 19,-45 62,-81 143,-118 63,-28 102,-55 102,-69 0,-3 -10,-17 -22,-29 -19,-21 -27,-23 -75,-17 -35,4 -66,15 -87,31 -18,14 -42,25 -54,25 -20,0 -21,-5 -19,-58 2,-32 7,-63 11,-70 12,-20 107,-42 183,-42 72,0 119,15 163,52 48,41 64,131 32,180 -21,32 -81,78 -122,94 -62,24 -92,39 -106,55 -15,17 -15,23 -4,44 11,21 20,25 63,25 38,0 59,-7 94,-31 62,-41 74,-34 69,38 -5,68 -14,77 -100,92 -69,12 -106,13 -152,2 z"
       id="path47"
       style="stroke-width:3.92954" />
    <path
       d="m 4818,3569 c -6,-4 -10,-110 -10,-275 v -269 h 203 204 v 55 55 h -125 -125 v 60 60 l 110,1 c 61,0 116,1 123,2 7,1 12,18 12,47 0,60 -13,65 -129,54 -52,-6 -100,-8 -108,-5 -10,4 -13,20 -11,58 l 3,53 123,-2 123,-2 -3,56 -3,56 -188,1 c -104,0 -193,-2 -199,-5 z"
       id="path49"
       style="stroke-width:3.92954" />
    <path
       d="m 4012,3298 3,-273 83,-3 c 45,-2 82,1 82,5 0,4 1,127 1,273 l 1,265 -86,3 -86,3 z"
       id="path51"
       style="stroke-width:3.92954" />
    <path
       d="m 5330,3565 c -1,-3 -1,-122 -1,-265 0,-143 0,-265 1,-270 0,-7 29,-10 78,-8 l 77,3 -3,108 -4,107 h 40 c 36,0 45,-5 76,-44 20,-23 36,-49 36,-56 0,-11 21,-64 39,-100 11,-20 181,-28 181,-8 1,24 -74,160 -107,195 -40,41 -41,51 -8,63 30,12 65,65 65,101 0,40 -20,91 -49,123 -45,49 -75,56 -256,56 -91,0 -165,-2 -165,-5 z m 287,-117 c 25,-24 32,-79 11,-95 -20,-16 -114,-37 -132,-30 -13,5 -16,21 -16,77 v 70 h 57 c 44,0 62,-5 80,-22 z"
       id="path53"
       style="stroke-width:3.92954" />
    <path
       d="m 7254,8493 c -19,-9 -38,-30 -48,-53 -18,-42 -21,-106 -5,-116 15,-9 -8,-24 -37,-24 -62,0 -85,-107 -41,-185 24,-42 92,-85 135,-85 32,0 27,-22 -14,-55 -30,-24 -35,-33 -32,-64 3,-41 28,-53 52,-24 8,10 31,38 51,63 41,50 43,53 140,165 38,44 70,82 72,84 2,3 17,-3 32,-12 41,-24 51,-21 50,16 -1,27 -13,42 -84,104 -61,53 -85,69 -94,60 -20,-20 -12,-55 19,-80 17,-14 30,-29 30,-34 0,-5 -12,-22 -27,-39 -16,-16 -45,-50 -66,-74 -37,-43 -40,-45 -95,-44 -65,0 -111,20 -131,57 -16,30 -8,72 15,81 16,6 67,-16 97,-43 17,-15 20,-14 33,4 19,25 18,32 -6,53 -61,52 -70,63 -70,83 0,16 4,19 18,14 64,-27 71,-29 94,-18 39,18 53,55 39,106 -10,35 -20,48 -47,61 -41,19 -40,19 -80,-1 z m 84,-77 c 3,-11 -4,-26 -14,-33 -22,-16 -24,-16 -48,2 -19,14 -19,15 -1,35 23,25 58,22 63,-4 z"
       id="path55"
       style="stroke-width:3.92954" />
    <path
       d="m 1540,8353 c -48,-42 -74,-72 -73,-83 2,-13 -6,-20 -25,-25 -18,-3 -64,-42 -123,-102 -52,-52 -124,-124 -161,-158 -60,-55 -66,-64 -54,-80 9,-13 20,-16 38,-12 23,6 157,135 208,200 12,15 29,27 39,27 18,0 51,-29 51,-45 0,-10 -132,-139 -165,-161 -33,-22 -35,-64 -2,-64 12,1 33,7 47,15 39,22 132,19 163,-5 52,-41 43,-100 -17,-100 -59,0 -87,-56 -42,-85 27,-18 58,-10 110,30 29,22 34,23 48,9 10,-10 41,-18 83,-21 l 67,-6 -4,29 -3,29 h -75 -75 l 3,44 c 5,77 -42,120 -139,130 l -61,6 48,53 c 25,28 51,52 56,52 5,0 58,-50 117,-111 95,-97 112,-110 132,-104 13,4 28,11 32,15 13,12 -1,46 -23,56 -10,5 -82,71 -158,146 l -140,137 29,37 c 16,21 40,44 52,53 12,8 26,21 30,28 15,24 34,14 75,-39 22,-29 59,-73 82,-98 23,-25 62,-70 87,-102 44,-56 77,-74 114,-63 29,9 23,28 -23,77 -72,75 -243,269 -247,280 -2,5 6,18 18,29 32,30 27,49 -11,48 -26,0 -50,-15 -108,-66 z"
       id="path57"
       style="stroke-width:3.92954" />
    <path
       d="m 7640,8171 c -15,-29 -6,-67 20,-81 27,-14 25,-44 -2,-63 -13,-8 -54,-45 -93,-82 -38,-37 -96,-90 -128,-118 -53,-46 -58,-54 -55,-86 2,-22 9,-37 18,-38 8,-2 85,65 170,147 85,83 159,150 163,150 5,0 17,-10 26,-22 22,-26 41,-16 41,21 0,18 -12,40 -32,62 -18,19 -52,57 -74,83 -41,49 -42,49 -54,27 z"
       id="path59"
       style="stroke-width:3.92954" />
    <path
       d="m 7820,7985 c -20,-25 -3,-74 43,-124 81,-89 117,-133 117,-141 0,-5 -15,-19 -32,-31 -18,-13 -37,-28 -43,-34 -5,-6 -17,-17 -27,-23 -17,-13 -23,-7 -132,131 -35,46 -60,47 -86,5 -22,-36 -28,-122 -9,-134 6,-3 24,3 40,15 15,11 32,21 37,21 19,0 74,-68 70,-88 -2,-12 -34,-43 -78,-74 -41,-30 -76,-61 -78,-69 -2,-9 6,-26 16,-40 l 20,-23 68,59 c 38,33 76,67 86,75 9,8 40,33 69,55 29,22 65,52 81,68 36,34 42,34 66,0 13,-17 25,-24 36,-20 22,9 21,61 -2,84 -10,10 -67,80 -127,156 -59,76 -111,140 -115,142 -4,3 -13,-2 -20,-10 z"
       id="path61"
       style="stroke-width:3.92954" />
    <path
       d="m 1055,7852 c -6,-4 -48,-56 -94,-117 -47,-60 -108,-138 -138,-172 -54,-62 -64,-89 -39,-99 24,-9 64,19 99,67 85,120 141,189 153,189 16,0 104,-61 104,-72 0,-5 -24,-19 -54,-32 -72,-32 -111,-88 -110,-159 0,-41 5,-52 30,-72 61,-50 144,-45 206,14 35,32 41,45 46,89 2,29 9,52 15,52 5,0 29,-18 53,-40 47,-43 59,-47 87,-26 28,22 20,43 -30,74 -27,16 -58,38 -70,48 -21,19 -178,140 -218,168 -20,14 -20,15 4,46 19,26 21,34 10,41 -17,11 -40,11 -54,1 z m 143,-254 c 7,-7 12,-29 12,-49 0,-110 -92,-187 -151,-128 -35,35 -20,83 42,141 53,49 76,57 97,36 z"
       id="path63"
       style="stroke-width:3.92954" />
    <path
       d="m 816,7721 c -3,-4 -25,-11 -48,-15 -23,-4 -47,-11 -53,-15 -5,-5 -23,-11 -39,-15 -16,-4 -54,-27 -85,-50 -43,-34 -60,-55 -73,-91 -15,-42 -15,-52 -2,-88 20,-55 49,-85 98,-98 23,-6 47,-13 54,-15 9,-3 2,-19 -23,-51 -31,-40 -34,-49 -21,-61 20,-21 67,4 85,46 17,38 30,40 68,9 15,-13 64,-45 108,-72 44,-27 108,-68 143,-92 35,-24 68,-43 73,-43 16,0 59,32 59,44 0,6 -86,62 -190,125 -188,112 -207,130 -179,158 7,7 9,19 5,28 -8,22 -45,11 -72,-23 -21,-25 -23,-26 -63,-12 -76,25 -96,105 -42,170 25,30 47,45 143,91 9,5 35,12 57,15 40,6 60,31 46,54 -8,12 -42,13 -49,1 z"
       id="path65"
       style="stroke-width:3.92954" />
    <path
       d="m 8266,7384 c -11,-28 -6,-61 12,-85 43,-59 44,-67 14,-85 -15,-9 -39,-25 -53,-35 -45,-31 -79,-29 -79,5 0,30 -20,47 -47,40 -21,-6 -93,-134 -93,-166 0,-9 -4,-20 -10,-23 -5,-3 -10,-14 -10,-23 0,-9 -7,-29 -14,-44 -29,-56 -22,-88 19,-88 19,0 26,7 31,28 3,15 10,41 14,57 5,17 11,47 15,68 6,38 7,38 48,35 39,-3 42,-5 48,-38 7,-47 23,-74 54,-94 14,-9 25,-22 25,-29 0,-6 -30,-25 -67,-42 -94,-42 -113,-59 -113,-101 0,-40 22,-46 61,-16 28,21 226,142 233,142 3,0 28,14 56,30 28,17 55,30 59,30 5,0 14,-14 20,-31 7,-21 16,-30 28,-27 24,4 30,73 10,96 -8,10 -30,44 -48,77 -18,33 -42,78 -54,100 -78,142 -95,176 -95,188 0,16 -31,47 -47,47 -6,0 -14,-7 -17,-16 z m 124,-277 c 0,-4 11,-25 24,-46 28,-44 27,-46 -45,-89 -52,-32 -79,-28 -121,16 -66,68 -60,91 37,147 l 60,34 22,-27 c 13,-15 23,-30 23,-35 z"
       id="path67"
       style="stroke-width:3.92954" />
    <path
       d="m 8660,7081 c -19,-37 -12,-71 17,-82 46,-17 67,-8 78,35 8,33 6,40 -10,52 -28,20 -72,18 -85,-5 z"
       id="path69"
       style="stroke-width:3.92954" />
    <path
       d="m 478,6959 c -14,-11 -30,-34 -33,-52 -4,-18 -11,-36 -15,-42 -4,-5 -26,-53 -49,-105 -22,-52 -54,-121 -72,-153 -34,-63 -30,-81 12,-75 18,2 32,18 54,63 29,58 32,60 72,63 36,3 44,-1 59,-23 14,-21 15,-31 5,-51 -6,-14 -11,-38 -11,-54 v -30 h 63 c 70,0 109,15 149,57 37,38 50,77 38,109 -10,26 -6,44 10,44 6,0 32,-14 59,-31 l 50,-30 30,22 c 39,28 28,51 -31,68 -24,7 -96,37 -161,67 -65,30 -128,56 -140,59 -12,4 -30,12 -40,19 -16,12 -16,16 -2,42 8,16 15,35 15,42 0,18 -31,14 -62,-9 z m 100,-169 c 44,-22 85,-47 93,-56 17,-21 17,-105 -1,-138 -16,-30 -65,-61 -81,-51 -5,4 -7,26 -3,56 6,46 5,50 -26,79 -27,25 -40,30 -81,30 -27,0 -49,5 -49,10 0,18 50,110 59,110 5,0 45,-18 89,-40 z"
       id="path71"
       style="stroke-width:3.92954" />
    <path
       d="m 8563,6869 c -30,-11 -30,-55 -2,-110 11,-23 18,-46 16,-53 -6,-16 -145,-71 -155,-62 -4,4 -7,24 -7,43 0,24 -6,39 -18,47 -30,18 -67,-33 -178,-240 -33,-61 -37,-74 -24,-84 34,-28 56,-3 97,107 13,34 30,65 38,68 8,3 29,-2 47,-12 29,-15 33,-21 26,-43 -19,-64 6,-150 45,-150 20,0 62,27 62,40 0,5 -14,24 -30,42 -26,28 -30,40 -28,78 2,37 7,46 23,48 12,2 43,13 70,26 27,13 54,22 61,19 7,-3 21,-32 32,-66 14,-47 24,-63 40,-65 46,-7 33,83 -30,202 -13,24 -48,135 -48,152 0,19 -12,23 -37,13 z"
       id="path73"
       style="stroke-width:3.92954" />
    <path
       d="m 278,6483 c -9,-10 -18,-27 -20,-38 -3,-14 -11,-19 -28,-18 -14,1 -51,0 -83,-3 -70,-7 -116,-42 -136,-102 -11,-33 -11,-43 3,-70 24,-46 59,-66 117,-64 l 50,1 -6,-32 c -3,-18 -13,-52 -20,-77 -8,-25 -24,-85 -36,-135 -12,-49 -26,-94 -31,-99 -9,-12 -11,-50 -2,-59 12,-12 62,32 69,60 11,46 23,54 54,39 14,-7 48,-18 75,-25 43,-10 52,-10 81,8 32,19 55,14 55,-13 0,-5 11,-24 26,-43 40,-53 98,-42 167,32 26,28 32,42 39,89 7,43 27,24 54,-48 16,-42 33,-77 39,-79 19,-8 55,12 55,31 0,10 -13,43 -30,73 -16,30 -30,62 -30,71 0,11 20,27 58,45 61,30 72,39 72,64 0,30 -31,31 -72,2 -21,-15 -50,-34 -63,-41 -14,-7 -25,-18 -25,-23 0,-20 -45,-4 -48,16 -9,60 -12,65 -42,65 -42,0 -54,-28 -34,-76 31,-74 -5,-184 -61,-184 -35,0 -55,48 -55,132 -1,63 -4,78 -28,112 -25,37 -33,41 -115,60 -86,21 -87,21 -82,48 l 6,27 h -61 c -69,-1 -106,17 -116,55 -9,36 4,64 36,81 31,16 115,21 124,7 2,-4 -4,-28 -15,-52 -33,-74 20,-87 56,-12 22,46 46,54 81,27 10,-8 27,-15 37,-15 11,0 31,-6 45,-14 15,-7 79,-30 143,-51 124,-40 150,-40 164,6 8,24 -8,39 -41,39 -11,0 -47,9 -80,20 -32,12 -114,38 -182,58 -134,40 -126,32 -110,102 5,22 -36,24 -54,3 z m 48,-390 c 26,-10 14,-32 -28,-51 -24,-10 -49,-26 -57,-35 -15,-18 -37,-22 -45,-8 -3,5 1,32 10,61 l 15,52 46,-7 c 25,-4 52,-9 59,-12 z m 82,-105 c 3,-50 1,-57 -19,-63 -20,-7 -114,0 -152,12 -18,5 -17,6 4,29 12,13 28,24 36,24 7,0 34,13 61,30 26,16 52,28 57,27 6,-2 11,-29 13,-59 z"
       id="path75"
       style="stroke-width:3.92954" />
    <path
       d="m 8654,6392 c -30,-24 -51,-61 -58,-104 -4,-21 -10,-38 -15,-38 -15,0 -39,25 -43,44 -1,10 -11,24 -20,30 -13,8 -22,5 -43,-14 -14,-13 -25,-27 -25,-32 0,-5 -10,-22 -21,-38 -19,-24 -21,-38 -16,-87 5,-51 10,-62 43,-90 45,-40 40,-59 -18,-68 -54,-9 -78,-30 -78,-68 0,-34 2,-34 120,6 41,14 100,32 130,41 30,8 80,22 111,30 73,21 89,20 89,-3 0,-11 6,-26 13,-33 8,-8 13,-37 12,-73 v -60 l -50,-7 c -27,-4 -72,-11 -100,-17 -27,-6 -79,-16 -115,-22 -124,-22 -139,-28 -156,-61 -26,-51 1,-57 116,-23 25,7 90,21 145,30 55,9 110,21 123,26 44,18 61,11 68,-26 9,-47 17,-50 44,-13 22,30 22,31 6,80 -9,28 -16,70 -16,93 0,24 -6,50 -14,57 -7,8 -16,34 -19,59 -8,80 -30,169 -41,169 -24,0 -39,-20 -45,-55 -6,-35 -9,-38 -66,-57 -33,-10 -81,-20 -108,-20 -41,-2 -52,3 -83,33 -59,56 -84,141 -45,154 13,4 30,-6 57,-34 43,-42 107,-67 148,-57 32,8 93,60 112,97 18,36 18,62 -2,102 -22,43 -53,67 -89,67 -16,0 -40,-8 -51,-18 z m 74,-68 c 30,-21 29,-66 -3,-99 -29,-28 -76,-33 -95,-10 -20,24 4,91 38,109 34,19 33,19 60,0 z"
       id="path77"
       style="stroke-width:3.92954" />
    <path
       d="m 96,5747 c -18,-13 -34,-92 -43,-207 -6,-79 -19,-214 -28,-292 -8,-74 -1,-83 40,-52 16,12 20,27 20,72 v 57 l 83,3 c 92,3 107,-7 77,-51 -15,-23 -14,-25 7,-39 15,-10 32,-12 50,-7 31,8 278,190 278,204 -1,6 -7,19 -15,29 -14,18 -16,18 -52,-10 -21,-15 -62,-52 -92,-81 l -55,-53 -33,32 c -33,32 -38,33 -131,38 l -97,5 3,70 c 1,39 6,88 10,110 7,35 11,40 32,38 45,-3 184,-24 220,-33 19,-5 66,-12 103,-16 62,-6 70,-5 93,17 13,12 24,28 24,35 0,14 1,14 -260,45 -96,11 -179,24 -185,29 -7,5 -10,23 -7,40 5,33 -11,40 -42,17 z"
       id="path79"
       style="stroke-width:3.92954" />
    <path
       d="m 8900,5665 c -11,-13 -11,-41 -2,-148 6,-73 8,-135 4,-139 -4,-3 -39,-10 -78,-13 l -71,-7 -6,101 c -7,114 -17,141 -52,141 -28,0 -80,-42 -100,-81 -18,-33 -9,-41 44,-43 35,-1 36,-2 44,-55 5,-31 5,-57 0,-62 -5,-5 -53,-12 -107,-16 -88,-6 -99,-8 -113,-30 -14,-21 -14,-26 -1,-39 13,-13 37,-12 209,6 258,27 249,27 249,-10 0,-34 26,-52 41,-29 5,8 7,41 4,74 -3,33 -7,128 -10,210 -4,137 -6,150 -23,153 -10,2 -25,-4 -32,-13 z"
       id="path81"
       style="stroke-width:3.92954" />
    <path
       d="m 2308,1540 c -25,-27 -38,-50 -38,-68 0,-53 -14,-57 -57,-18 -46,41 -59,44 -68,16 -8,-26 10,-57 45,-75 17,-9 30,-20 30,-25 0,-6 -17,-34 -37,-63 -20,-28 -59,-86 -87,-127 -28,-41 -63,-90 -78,-108 -40,-47 -36,-102 8,-102 16,0 28,10 40,32 9,18 42,70 73,116 75,113 82,123 110,171 14,22 29,41 33,41 5,0 32,-18 61,-39 29,-22 96,-62 151,-90 123,-64 140,-76 132,-93 -24,-49 -53,-92 -63,-96 -7,-2 -18,9 -24,25 -24,64 -86,103 -162,103 -65,0 -107,-44 -107,-113 0,-85 99,-178 172,-162 41,9 45,-15 10,-66 -24,-35 -28,-47 -20,-65 12,-25 30,-36 44,-26 6,4 31,48 56,97 25,50 55,106 66,125 12,19 33,58 47,86 31,63 51,82 67,66 7,-7 22,-12 35,-12 12,0 26,-6 30,-14 4,-8 52,-31 106,-51 53,-21 97,-41 97,-45 0,-4 -8,-18 -18,-30 l -18,-23 -48,22 c -63,28 -103,27 -127,-1 -25,-31 -24,-57 6,-101 26,-38 26,-57 0,-57 -19,0 -35,-32 -35,-68 0,-35 49,-105 93,-133 32,-20 96,-22 140,-4 16,7 19,3 16,-26 -4,-63 -1,-69 31,-69 24,0 30,4 30,21 0,12 6,35 14,52 7,18 23,57 35,87 12,30 26,64 31,75 4,11 19,47 31,80 29,77 41,90 66,77 11,-6 25,-7 33,-2 9,5 23,2 39,-9 15,-10 45,-22 69,-26 53,-9 72,-27 72,-70 0,-47 -33,-68 -97,-63 -40,2 -48,0 -51,-16 -8,-37 31,-127 70,-162 47,-42 79,-50 129,-34 21,7 42,10 46,6 4,-3 -1,-31 -11,-62 -16,-51 -16,-57 -1,-80 8,-13 20,-24 25,-24 20,0 40,34 40,70 0,21 5,51 11,67 10,27 32,126 50,228 9,54 32,79 58,66 9,-5 40,-12 69,-16 54,-7 54,-7 48,-39 -22,-126 -49,-300 -53,-343 -4,-47 -3,-53 22,-69 33,-22 48,-9 50,43 3,63 25,225 32,236 4,6 9,41 12,77 l 6,65 h 40 c 29,0 41,4 43,16 5,27 -45,59 -92,59 -36,0 -100,12 -271,50 -22,5 -78,18 -125,30 -149,37 -189,43 -204,31 -11,-10 -16,-8 -21,8 -4,13 -26,27 -63,41 -31,11 -68,25 -82,31 -14,6 -38,17 -55,24 -16,7 -70,30 -120,50 -49,20 -104,43 -122,51 -17,8 -36,14 -42,14 -6,0 -29,11 -51,25 -22,14 -44,25 -49,25 -5,0 -14,7 -21,15 -7,8 -21,15 -31,15 -10,0 -22,6 -26,13 -4,6 -26,21 -48,32 -22,10 -63,34 -92,52 -28,17 -70,41 -92,53 -48,24 -75,61 -67,88 4,11 18,32 31,46 26,28 72,34 119,16 35,-13 78,-76 100,-146 25,-78 48,-125 61,-121 13,5 19,65 7,80 -5,7 -13,32 -17,56 -4,24 -18,64 -32,90 -49,93 -100,131 -179,131 -42,0 -51,-4 -86,-40 z m 160,-493 c 17,-13 41,-36 53,-51 20,-25 20,-28 4,-46 -36,-40 -131,-32 -178,14 -17,17 -24,86 -10,99 3,4 27,7 53,7 33,0 55,-7 78,-23 z m 626,-122 c 43,-18 45,-33 11,-103 -14,-29 -25,-55 -25,-58 0,-3 -6,-20 -14,-37 -8,-18 -16,-40 -19,-49 -14,-41 -131,-71 -203,-52 -22,6 -58,59 -50,73 3,4 18,14 34,20 24,10 36,9 76,-8 51,-22 61,-17 54,30 -2,18 -14,27 -53,39 -82,25 -97,37 -93,73 4,44 31,46 108,7 72,-36 82,-32 99,35 12,49 20,53 75,30 z m 450,-137 c 58,-16 65,-24 56,-56 -5,-15 -17,-56 -26,-91 -21,-75 -52,-101 -123,-101 -35,0 -51,6 -73,27 -37,35 -36,53 2,53 47,0 90,27 106,66 13,31 13,39 0,66 -25,49 -13,56 58,36 z"
       id="path83"
       style="stroke-width:3.92954" />
    <path
       d="m 6428,1477 c -34,-28 -35,-41 -6,-61 33,-23 63,-20 82,9 17,26 43,32 74,16 24,-12 82,-32 116,-40 42,-9 42,-24 -1,-48 -21,-12 -56,-31 -78,-43 -34,-19 -129,-75 -185,-110 -8,-5 -42,-21 -75,-36 -33,-15 -114,-53 -180,-85 -124,-59 -138,-65 -315,-129 -58,-20 -112,-40 -120,-44 -8,-3 -35,-10 -60,-15 -25,-5 -81,-19 -125,-31 -44,-11 -96,-25 -115,-30 -96,-24 -127,-32 -145,-40 -11,-5 -59,-11 -107,-14 -122,-7 -339,-36 -365,-49 -14,-6 -27,-7 -35,0 -8,6 -70,6 -163,1 -82,-4 -178,-5 -212,-2 -58,6 -63,5 -63,-13 0,-31 34,-56 67,-49 15,3 33,3 39,-2 7,-4 13,-45 15,-96 4,-89 4,-90 -21,-96 -40,-9 -37,-43 7,-91 45,-48 79,-48 85,-1 3,27 4,27 78,27 h 75 l 3,-77 c 3,-76 2,-77 -26,-92 -16,-8 -36,-29 -44,-47 -21,-42 -8,-81 44,-133 35,-34 45,-39 101,-43 74,-6 100,8 86,45 -12,31 -33,37 -70,18 -43,-22 -56,-20 -84,9 -51,50 -13,115 66,115 46,0 48,8 14,48 -25,30 -25,31 -25,226 v 196 h 28 c 16,0 32,3 36,7 3,4 29,6 56,4 27,-1 85,5 129,14 45,9 98,15 118,13 34,-3 38,-6 41,-33 5,-39 -19,-55 -80,-55 -51,0 -113,-25 -138,-55 -8,-10 -14,-39 -14,-69 0,-60 23,-102 107,-190 56,-59 79,-67 85,-27 3,16 -10,34 -47,67 -63,56 -90,118 -69,160 17,36 52,53 114,56 l 49,3 6,-60 c 10,-97 30,-199 42,-213 6,-7 22,-12 36,-10 31,4 31,8 7,153 -9,55 -21,125 -26,155 -4,30 -11,74 -15,97 l -7,41 58,6 c 33,4 72,11 89,16 38,13 49,1 65,-65 24,-105 24,-107 -1,-126 -20,-15 -22,-20 -12,-42 6,-13 32,-34 57,-47 38,-18 49,-20 62,-9 10,8 13,21 9,36 -6,25 3,31 93,59 41,13 43,12 52,-9 5,-12 14,-47 20,-78 11,-56 33,-79 75,-79 21,0 27,34 10,66 -8,16 -15,38 -15,49 0,12 -5,26 -11,32 -6,6 -15,29 -20,50 -4,21 -17,74 -29,118 -38,143 -40,131 24,146 32,7 59,16 62,21 11,17 34,7 34,-14 0,-30 8,-40 53,-66 24,-14 55,-22 83,-22 53,0 61,-13 44,-66 -11,-31 -15,-35 -36,-30 -13,3 -36,9 -51,12 -19,5 -30,2 -40,-11 -21,-30 -15,-48 22,-73 26,-18 41,-22 65,-17 26,6 39,0 95,-44 65,-51 91,-61 113,-39 20,20 -6,49 -74,79 -66,30 -80,53 -50,79 22,17 40,110 32,163 -7,49 -38,97 -62,97 -31,0 -11,26 34,43 93,36 128,52 197,90 78,43 93,41 111,-11 5,-18 15,-37 22,-44 27,-27 11,-44 -88,-92 -82,-40 -100,-53 -100,-71 0,-25 8,-34 63,-64 65,-36 98,-21 77,35 -6,14 -10,29 -10,34 0,14 72,51 93,48 21,-3 25,-9 53,-78 10,-25 25,-54 35,-65 11,-14 15,-31 12,-57 -5,-34 -3,-38 22,-44 28,-7 41,1 59,38 14,28 57,35 80,13 27,-27 20,-73 -15,-106 -28,-26 -38,-29 -98,-29 -47,0 -77,6 -104,20 -20,11 -50,20 -67,20 -25,0 -30,-4 -30,-24 0,-25 19,-36 100,-57 91,-24 162,-23 215,3 55,26 95,76 95,119 0,60 -109,140 -162,120 -20,-8 -29,-6 -40,7 -15,18 -178,339 -178,351 0,4 29,22 65,39 35,18 105,59 155,92 99,66 125,72 142,36 16,-36 6,-50 -56,-85 -61,-35 -93,-73 -102,-120 -11,-54 47,-120 150,-170 71,-35 128,-39 134,-10 2,13 -14,23 -63,40 -91,32 -139,74 -139,121 0,43 11,58 72,99 52,35 50,37 100,-54 88,-159 86,-157 128,-157 33,0 36,2 30,25 -3,13 -16,39 -29,58 -12,18 -42,65 -67,105 -25,40 -64,102 -87,138 -24,36 -43,70 -43,74 0,4 14,13 31,19 21,7 29,16 27,28 -3,14 -13,18 -48,18 -40,0 -115,27 -185,67 -11,6 -54,13 -95,15 -67,3 -78,1 -102,-20 z M 6018,880 c 31,-46 26,-74 -14,-78 -22,-2 -40,5 -63,23 -35,30 -39,50 -14,77 25,28 63,19 91,-22 z m -394,-82 c 2,-7 10,-35 19,-63 9,-27 18,-63 19,-79 3,-26 -1,-30 -32,-38 -19,-5 -45,-13 -56,-19 -32,-16 -59,-7 -62,21 -1,14 -10,44 -18,67 -8,23 -14,55 -12,70 3,25 9,29 53,40 67,15 85,15 89,1 z M 4695,647 c 3,-12 5,-56 3,-97 l -3,-75 h -75 -75 l -6,85 c -3,49 -2,90 4,98 6,7 35,12 78,12 63,0 69,-2 74,-23 z"
       id="path85"
       style="stroke-width:3.92954" />
    <path
       d="m 4088,719 c -55,-41 -37,-88 84,-217 57,-60 68,-78 68,-106 0,-26 -7,-41 -31,-60 -17,-14 -40,-26 -52,-26 -38,0 -106,40 -128,76 -25,40 -52,42 -57,3 -5,-39 79,-113 153,-134 53,-16 60,-16 101,0 50,19 74,54 74,107 0,70 -19,104 -95,179 -109,107 -99,127 50,106 28,-4 57,-3 65,3 13,8 13,13 -2,37 -15,24 -26,29 -100,40 -105,15 -98,16 -130,-8 z"
       id="path87"
       style="stroke-width:3.92954" />
  </g>
</svg>
