<svg enable-background="new 0 0 216.691 127.588" version="1.1" viewBox="0 0 216.691 127.588" width="412.112248059" height="242.652336762" x="0px" xml:space="preserve" xmlns="http://www.w3.org/2000/svg" xmlns:xlink="http://www.w3.org/1999/xlink" y="0px">
<path clip-rule="evenodd" d="M5.121,29.351c7.845-20.876,40.361-4.879,89.656,34.49-31.614-23.485-76.931-40.885-89.656-34.490" fill-rule="evenodd"/>
<path clip-rule="evenodd" d="M27.785,68.969c5.466,10.744,23.587,26.449,63.216,5.778,43.77-22.83,70.693-47.692,89.757-56.867,36.975-17.794,31.683,5.328,27.992,17.002,7.302-50.393-51.531,2.792-105.72,35.848-34.498,21.043-64.824,25.328-80.191,3.142l4.946-4.903z" fill="#0080C7" fill-rule="evenodd"/>
<path d="M128.24,59.763c0.197,9.766-1.369,19.434-5.064,28.986" fill="none" stroke="#0080C7" stroke-miterlimit="2.6131" stroke-width="0.9998"/>
<path clip-rule="evenodd" d="M37.681,58.129c5.276,10.733,19.298,24.771,58.507,5.675,43.581-21.227,71.285-47.814,89.768-57.021,35.849-17.856,30.941,3.873,27.346,15.552,3.959-47.066-50.968,5.719-103.52,38.864-33.455,21.1-60.707,24.556-76.608,3.978l4.499-7.048z" fill="#0080C7" fill-rule="evenodd"/>
<path d="M158.30,39.383c1.464,18.701-1.118,38.71-7.06,57.199" fill="none" stroke="#0080C7" stroke-miterlimit="2.6131" stroke-width="0.9998"/>
<path clip-rule="evenodd" d="M15.454,76.133c15.114-2.61,26.354-16.443,24.685-27.909-2.072,14.766-14.488,22.416-24.685,27.909" fill="#0080C7" fill-rule="evenodd"/>
<path d="M188.96,23.524c0.868,18.337-1.315,39.405-7.061,57.528" fill="none" stroke="#0080C7" stroke-miterlimit="2.6131" stroke-width="0.9998"/>
<path clip-rule="evenodd" d="M147.89,43.913c-78.924,58.797-145.32,81.427-142.77-14.562-8.675,4.739-10.689,61.979,30.011,70.699,25.245,4.285,58.409-15.02,80.076-29.689,49.598-33.581,107.87-82.009,79.526-6.282,25.54-44.918,12.87-61.263-46.85-20.166" fill="#0080C7" fill-rule="evenodd"/>
<path clip-rule="evenodd" d="M108.51,78.109c29.794,25.205,59.267,33.777,86.226-14.035-28.78,42.146-58.06,35.737-86.23,14.035" fill-rule="evenodd"/>
<path clip-rule="evenodd" d="M26.361,58.055c2.372,0.131,4.195,2.065,4.071,4.321-0.123,2.255-2.147,3.979-4.519,3.85-2.372-0.131-4.194-2.065-4.071-4.321,0.125-2.256,2.148-3.980,4.519-3.850" fill-rule="evenodd"/>
	<path d="M2.815,111.19h-2.621v-1.427h6.381v1.427h-2.635v11.572h-1.125v-11.566z"/>
	<path d="M13.637,109.77v5.438h4.169v-5.438h1.125v12.999h-1.125v-6.095h-4.169v6.095h-1.125v-12.999h1.125z"/>
	<path d="M26.406,109.77v12.999h-1.125v-12.999h1.125z"/>
	<path d="M32.38,109.94c0.563-0.154,1.381-0.27,2.136-0.27,1.188,0,1.969,0.347,2.493,1.061,0.422,0.579,0.678,1.466,0.678,2.488,0,1.697-0.716,2.835-1.611,3.298v0.058c0.652,0.348,1.049,1.273,1.253,2.623,0.281,1.813,0.486,3.067,0.665,3.568h-1.15c-0.141-0.386-0.333-1.485-0.563-3.105-0.256-1.794-0.729-2.469-1.739-2.526h-1.049v5.632h-1.113v-12.82zm1.112,5.92h1.139c1.188,0,1.943-0.983,1.943-2.469,0-1.678-0.806-2.41-1.982-2.41-0.537,0-0.907,0.058-1.1,0.135v4.741z"/>
	<path d="M46.263,109.77v7.715c0,2.893,0.857,4.127,2.008,4.127,1.266,0,2.097-1.273,2.097-4.127v-7.715h1.126v7.599c0,3.992-1.395,5.612-3.261,5.612-1.765,0-3.095-1.504-3.095-5.555v-7.656h1.125z"/>
	<path d="M59.813,122.77l-2.826-12.999h1.215l1.343,6.402c0.358,1.756,0.678,3.337,0.921,4.861h0.025c0.243-1.505,0.588-3.145,0.984-4.842l1.458-6.422h1.189l-3.082,12.999h-1.227z"/>
	<path d="M70.43,118.68l-0.895,4.089h-1.151l2.941-12.999h1.33l2.94,12.999h-1.188l-0.921-4.089h-3.056zm2.839-1.31l-0.856-3.741c-0.192-0.85-0.319-1.621-0.447-2.373h-0.026c-0.128,0.752-0.255,1.563-0.435,2.354l-0.844,3.761h2.608z"/>
	<path d="M81.807,122.77v-12.999h1.228l2.749,6.576c0.627,1.523,1.139,2.894,1.535,4.225l0.038-0.02c-0.103-1.736-0.128-3.317-0.128-5.343v-5.438h1.049v12.999h-1.126l-2.736-6.597c-0.601-1.446-1.176-2.932-1.598-4.339l-0.039,0.019c0.064,1.64,0.077,3.202,0.077,5.362v5.555h-1.049z"/>
	<path d="M95.971,118.68l-0.895,4.089h-1.151l2.941-12.999h1.33l2.94,12.999h-1.188l-0.921-4.089h-3.060zm2.839-1.31l-0.856-3.741c-0.192-0.85-0.319-1.621-0.447-2.373h-0.026c-0.128,0.752-0.255,1.563-0.435,2.354l-0.844,3.761h2.608z"/>
	<path d="M107.35,122.77v-12.999h1.228l2.749,6.576c0.627,1.523,1.139,2.894,1.535,4.225l0.038-0.02c-0.103-1.736-0.128-3.317-0.128-5.343v-5.438h1.049v12.999h-1.126l-2.736-6.597c-0.601-1.446-1.176-2.932-1.598-4.339l-0.039,0.019c0.064,1.64,0.077,3.202,0.077,5.362v5.555h-1.043z"/>
	<path d="M121.75,111.19h-2.621v-1.427h6.381v1.427h-2.635v11.572h-1.125v-11.566z"/>
	<path d="M132.58,109.77v5.438h4.169v-5.438h1.125v12.999h-1.125v-6.095h-4.169v6.095h-1.125v-12.999h1.115z"/>
	<path d="M145.63,118.68l-0.895,4.089h-1.151l2.941-12.999h1.33l2.94,12.999h-1.189l-0.92-4.089h-3.064zm2.83-1.31l-0.856-3.741c-0.192-0.85-0.319-1.621-0.447-2.373h-0.026c-0.128,0.752-0.255,1.563-0.435,2.354l-0.844,3.761h2.625z"/>
	<path d="M157,109.92c0.537-0.136,1.24-0.251,2.136-0.251,1.1,0,1.905,0.386,2.417,1.08,0.46,0.617,0.754,1.562,0.754,2.72,0,1.176-0.23,2.102-0.665,2.777-0.601,0.944-1.547,1.427-2.634,1.427-0.333,0-0.64-0.02-0.896-0.116v5.208h-1.112v-12.848zm1.12,6.27c0.243,0.097,0.55,0.135,0.921,0.135,1.343,0,2.161-1.002,2.161-2.758,0-1.735-0.818-2.564-2.033-2.564-0.486,0-0.856,0.058-1.049,0.135v5.049z"/>
	<path d="M170.18,109.77v7.715c0,2.893,0.857,4.127,2.008,4.127,1.266,0,2.097-1.273,2.097-4.127v-7.715h1.126v7.599c0,3.992-1.395,5.612-3.261,5.612-1.765,0-3.095-1.504-3.095-5.555v-7.656h1.12z"/>
	<path d="M181.84,109.94c0.563-0.154,1.381-0.27,2.136-0.27,1.189,0,1.969,0.347,2.493,1.061,0.422,0.579,0.678,1.466,0.678,2.488,0,1.697-0.716,2.835-1.611,3.298v0.058c0.652,0.348,1.049,1.273,1.253,2.623,0.281,1.813,0.486,3.067,0.665,3.568h-1.15c-0.141-0.386-0.333-1.485-0.563-3.105-0.256-1.794-0.729-2.469-1.739-2.526h-1.049v5.632h-1.112v-12.82zm1.11,5.92h1.139c1.188,0,1.943-0.983,1.943-2.469,0-1.678-0.806-2.41-1.982-2.41-0.537,0-0.907,0.058-1.1,0.135v4.741z"/>
	<path d="M196,118.68l-0.895,4.089h-1.151l2.941-12.999h1.33l2.94,12.999h-1.188l-0.921-4.089h-3.048zm2.84-1.31l-0.856-3.741c-0.192-0.85-0.319-1.621-0.447-2.373h-0.026c-0.128,0.752-0.255,1.563-0.435,2.354l-0.844,3.761h2.621z"/>
	<path d="M214.64,117.06c-0.063-1.813-0.141-4.012-0.141-5.612h-0.025c-0.307,1.504-0.652,3.144-1.087,4.938l-1.521,6.307h-0.844l-1.406-6.191c-0.409-1.852-0.742-3.51-0.985-5.053h-0.025c-0.025,1.62-0.09,3.78-0.166,5.747l-0.23,5.574h-1.062l0.602-12.999h1.419l1.471,6.287c0.358,1.601,0.64,3.028,0.869,4.378h0.026c0.229-1.312,0.537-2.738,0.92-4.378l1.535-6.287h1.419l0.537,12.999h-1.1l-0.22-5.72z"/>
<path d="M132.58,14.813h3.602c2.338,0.001,3.798-0.074,4.38-0.229,0.576-0.155,1.026-0.426,1.352-0.808,0.319-0.382,0.48-0.856,0.471-1.429-0.011-0.644-0.239-1.158-0.678-1.554-0.439-0.395-1.056-0.644-1.851-0.75-0.394-0.04-1.58-0.063-3.558-0.063l-3.799-0.001,0.09,4.834zm-4.70,10.999l-0.319-19.059,10.261,0.002c2.579,0,4.453,0.174,5.628,0.516s2.123,0.95,2.84,1.824c0.718,0.879,1.083,1.877,1.102,3.004,0.023,1.429-0.49,2.613-1.536,3.545-1.047,0.928-2.633,1.518-4.747,1.757,1.064,0.488,1.944,1.021,2.64,1.603,0.695,0.581,1.634,1.61,2.822,3.093l3.013,3.719-5.827-0.001-3.593-4.149c-1.278-1.481-2.148-2.414-2.615-2.8-0.467-0.387-0.961-0.648-1.48-0.795-0.519-0.142-1.335-0.213-2.459-0.213h-0.983l0.134,7.956-4.87-0.002zm-25.88-0.004l-0.32-19.058,17.892,0.002,0.054,3.227-13.02-0.002,0.071,4.224,12.114,0.002,0.054,3.208-12.114-0.001,0.087,5.187,13.48,0.002,0.054,3.213-18.34-0.004zm-27.223-6.203l4.736-0.368c0.302,1.261,0.896,2.184,1.782,2.773,0.881,0.586,2.061,0.884,3.544,0.884,1.568,0,2.749-0.262,3.533-0.789,0.789-0.523,1.178-1.136,1.166-1.837-0.008-0.452-0.183-0.835-0.525-1.149-0.337-0.319-0.926-0.595-1.767-0.825-0.57-0.16-1.879-0.436-3.914-0.835-2.621-0.511-4.464-1.142-5.527-1.887-1.501-1.048-2.264-2.325-2.289-3.835-0.017-0.972,0.316-1.876,0.999-2.724,0.683-0.843,1.678-1.486,2.979-1.93,1.308-0.439,2.883-0.661,4.737-0.66,3.034,0,5.319,0.523,6.871,1.571,1.546,1.052,2.373,2.449,2.48,4.202l-4.869,0.168c-0.224-0.98-0.686-1.687-1.378-2.112-0.693-0.431-1.725-0.644-3.096-0.644-1.416,0-2.525,0.226-3.315,0.688-0.512,0.293-0.764,0.688-0.756,1.18,0.008,0.453,0.256,0.839,0.744,1.158,0.62,0.408,2.122,0.835,4.5,1.274,2.379,0.444,4.14,0.901,5.283,1.372,1.143,0.475,2.041,1.118,2.701,1.939,0.654,0.82,0.992,1.832,1.012,3.035,0.019,1.092-0.347,2.116-1.101,3.066-0.754,0.953-1.826,1.663-3.224,2.125-1.396,0.466-3.146,0.695-5.242,0.695-3.051,0-5.403-0.556-7.058-1.669-1.650-1.112-2.655-2.736-3.006-4.866zm-11.568,6.198l-0.319-19.059,4.871,0.001,0.32,19.058h-4.872zm-12.757-0.002l-0.32-19.059,4.873,0.001,0.318,19.058h-4.871z"/>
<path d="M132.58,14.813h3.602c2.338,0.001,3.798-0.074,4.38-0.229,0.576-0.155,1.026-0.426,1.352-0.808,0.319-0.382,0.48-0.856,0.471-1.429-0.011-0.644-0.239-1.158-0.678-1.554-0.439-0.395-1.056-0.644-1.851-0.75-0.394-0.04-1.58-0.063-3.558-0.063l-3.799-0.001,0.09,4.834zm-4.70,10.999l-0.319-19.059,10.261,0.002c2.579,0,4.453,0.174,5.628,0.516s2.123,0.95,2.84,1.824c0.718,0.879,1.083,1.877,1.102,3.004,0.023,1.429-0.49,2.613-1.536,3.545-1.047,0.928-2.633,1.518-4.747,1.757,1.064,0.488,1.944,1.021,2.64,1.603,0.695,0.581,1.634,1.61,2.822,3.093l3.013,3.719-5.827-0.001-3.593-4.149c-1.278-1.481-2.148-2.414-2.615-2.8-0.467-0.387-0.961-0.648-1.48-0.795-0.519-0.142-1.335-0.213-2.459-0.213h-0.983l0.134,7.956-4.87-0.002zm-25.88-0.004l-0.32-19.058,17.892,0.002,0.054,3.227-13.02-0.002,0.071,4.224,12.114,0.002,0.054,3.208-12.114-0.001,0.087,5.187,13.48,0.002,0.054,3.213-18.34-0.004zm-27.223-6.203l4.736-0.368c0.302,1.261,0.896,2.184,1.782,2.773,0.881,0.586,2.061,0.884,3.544,0.884,1.568,0,2.749-0.262,3.533-0.789,0.789-0.523,1.178-1.136,1.166-1.837-0.008-0.452-0.183-0.835-0.525-1.149-0.337-0.319-0.926-0.595-1.767-0.825-0.57-0.16-1.879-0.436-3.914-0.835-2.621-0.511-4.464-1.142-5.527-1.887-1.501-1.048-2.264-2.325-2.289-3.835-0.017-0.972,0.316-1.876,0.999-2.724,0.683-0.843,1.678-1.486,2.979-1.93,1.308-0.439,2.883-0.661,4.737-0.66,3.034,0,5.319,0.523,6.871,1.571,1.546,1.052,2.373,2.449,2.48,4.202l-4.869,0.168c-0.224-0.98-0.686-1.687-1.378-2.112-0.693-0.431-1.725-0.644-3.096-0.644-1.416,0-2.525,0.226-3.315,0.688-0.512,0.293-0.764,0.688-0.756,1.18,0.008,0.453,0.256,0.839,0.744,1.158,0.62,0.408,2.122,0.835,4.5,1.274,2.379,0.444,4.14,0.901,5.283,1.372,1.143,0.475,2.041,1.118,2.701,1.939,0.654,0.82,0.992,1.832,1.012,3.035,0.019,1.092-0.347,2.116-1.101,3.066-0.754,0.953-1.826,1.663-3.224,2.125-1.396,0.466-3.146,0.695-5.242,0.695-3.051,0-5.403-0.556-7.058-1.669-1.650-1.112-2.655-2.736-3.006-4.866zm-11.568,6.198l-0.319-19.059,4.871,0.001,0.32,19.058h-4.872zm-12.757-0.002l-0.32-19.059,4.873,0.001,0.318,19.058h-4.871z" fill="none" stroke="#000" stroke-miterlimit="2.6131" stroke-width="0.216"/>
</svg>